<?xml version="1.0" encoding="utf-8"?>
<!-- Generator: Adobe Illustrator 26.2.1, SVG Export Plug-In . SVG Version: 6.00 Build 0)  -->
<svg version="1.1" id="Layer_1" xmlns="http://www.w3.org/2000/svg" xmlns:xlink="http://www.w3.org/1999/xlink" x="0px" y="0px"
	 viewBox="0 0 165 80" style="enable-background:new 0 0 165 80;" xml:space="preserve">
<style type="text/css">
	.st0{fill:#FFFFFF;}
	.st1{fill:#1D1D1B;}
	.st2{clip-path:url(#SVGID_00000113343049845920011510000012786058567455320501_);fill:#1D1D1B;}
	.st3{clip-path:url(#SVGID_00000155828002261964988870000002077285350876618415_);fill:#1D1D1B;}
	.st4{clip-path:url(#SVGID_00000012438854192706314660000016483435860766625970_);fill:#1D1D1B;}
	.st5{clip-path:url(#SVGID_00000147913291813914578220000016995099142708435879_);fill:#1D1D1B;}
	.st6{clip-path:url(#SVGID_00000092457448892850026740000011541912876316469931_);fill:#1D1D1B;}
	.st7{clip-path:url(#SVGID_00000129890019785225201310000008406363606668109489_);fill:#1D1D1B;}
	.st8{clip-path:url(#SVGID_00000000203906450536355900000004818637422539399355_);fill:#1D1D1B;}
	.st9{clip-path:url(#SVGID_00000145027303221243753950000011325654629182566067_);fill:#1D1D1B;}
	.st10{clip-path:url(#SVGID_00000107576789385177001720000010441035545064950694_);fill:#1D1D1B;}
	.st11{clip-path:url(#SVGID_00000154393941733137343310000014096675458465322884_);fill:#1D1D1B;}
	.st12{clip-path:url(#SVGID_00000057869227048459271740000006746122810532934807_);fill:#1D1D1B;}
	.st13{clip-path:url(#SVGID_00000064349382311524483310000003380054007466938815_);fill:#1D1D1B;}
	.st14{clip-path:url(#SVGID_00000037680532124549202430000017307276879907855525_);fill:#1D1D1B;}
	.st15{clip-path:url(#SVGID_00000146488439780086456270000012517992930032818334_);fill:#1D1D1B;}
	.st16{clip-path:url(#SVGID_00000036233206682342375470000008979438602427181189_);fill:#1D1D1B;}
	.st17{clip-path:url(#SVGID_00000011740150307695307410000006845065087687718052_);fill:#1D1D1B;}
	.st18{clip-path:url(#SVGID_00000024718950791123475530000010726771740718034314_);}
	.st19{fill-rule:evenodd;clip-rule:evenodd;fill:#231F20;}
	.st20{fill-rule:evenodd;clip-rule:evenodd;}
	.st21{fill:#231F20;}
	.st22{fill:#12110B;}
	.st23{clip-path:url(#SVGID_00000174601691996656698650000009846143755875679926_);fill:#1D1D1B;}
</style>
<g>
	<g id="bird_00000071543883052313310070000012740701457825579416_">
		<path id="right-leg_00000016787703614939624000000006186402819788541329_" d="M60.5,34.1c0.2-0.1,0.3-0.2,0.5-0.3
			c0.6-0.2,0.8-0.9,1.4-0.8c0.6-0.7,1.5-0.8,2.1-1.3c0-0.1,0.1-0.3,0.2-0.3c0.4-0.3-0.3-0.6-0.3-0.6c-0.2-0.3-0.5,0-0.5,0
			c-0.2,0.1-0.3,0.2-0.5,0.3c-0.1,0.3-0.4,0.3-0.7,0.5c-0.4,0.3-0.8,0.6-1.2,0.8c-0.3,0.5-0.8,0.5-1.2,0.9c-0.2,0.2-0.4,0.4-0.6,0.6
			c0,0-0.8,0.8,0.3,0.3L60.5,34.1z"/>
		<path id="right-toe_00000090259585640678021350000001888673814246186631_" d="M59.4,35.3C59.4,35.3,59.4,35.4,59.4,35.3
			c-0.1,0.1-0.1,0.1-0.1,0.1c-0.5,0.4-0.9,0.9-1.3,1.5c-0.4,0.6-0.8,1.1-1.4,1.5c-0.5,0-0.8,0.5-1.2,0.7c-0.1,0-0.1-0.2-0.2-0.3
			c-0.2-0.3-0.2-0.6-0.1-0.9c0.3,0,0.5-0.2,0.7-0.4c0.3-0.2,0.5-0.5,0.8-0.7c0.8-0.7,1.6-1.5,2.3-2.2C59,34.7,59.6,34.4,59.4,35.3z"
			/>
		<path id="right-foot_00000034806814016661349770000007700590849910666372_" d="M59.3,33.6c-0.9,0.4-2,0.4-2.7,1.1
			c-0.3,0.2-0.9-0.1-1.1,0.3c0.1,0.1,0,0.3,0,0.4l-0.3,0l0.1,0.6c0.8,0.1,1.2-0.9,2-1l0.1,0.1v0.2c-0.1,0.1-0.3-0.1-0.4,0
			c-0.4,0.4-0.9,0.7-1.4,1c-0.1,0.1-0.1,0.3-0.3,0.3l-0.1,0.9c0.4,0.1,0.8-0.3,1.1-0.5c0.1-0.1,0.2-0.1,0.3-0.2
			c0.8-0.9,1.8-1.5,2.4-2.5C58.9,34.2,59.2,34.3,59.3,33.6z"/>
		<path id="right-knee_00000036974398097258926080000003285811476409233050_" d="M78,33.4c0.1,1.2-0.5,2.1-1.3,2.9
			c-0.8,0.2-1.6,0.8-2.4,0.3c-0.5-0.3-1.2,0-1.5-0.6c-0.2-0.1-0.4,0-0.5-0.3c0.1-0.3,0.4-0.3,0.6-0.4c1,0.1,2.2,0.9,3,0
			c0.4-0.2,0.9-0.2,0.9-0.7c0-0.3,0.1-0.7,0.4-0.9c0.3,0,0.3-0.4,0.4-0.6c0,0,0-0.9,0.3-0.8c0,0,0.3,0.3,0,0.6L78,33.4z"/>
		<path id="left-knee_00000043459294480631988350000004219705866003945913_" d="M70.9,28.8c-0.3,0.3-0.6,0.5-0.8,0.7
			c-1.2,0.4-2.5,0.7-3.8,0.2c-0.2-0.3,0.3-0.4,0-0.7c0.1-0.1,0.2-0.2,0.3-0.2c0.2,0.5,0.7,0.2,1,0.3c0.5,0.2,0.9-0.2,1.4-0.1
			c0.3-0.2,0.5-0.2,0.8-0.3c0.1,0,0.1,0,0.2,0C70.1,28.6,71.1,27.9,70.9,28.8z"/>
		<path id="front-legs_00000127029619594399574080000002276670632993201058_" d="M96.5,27.2c-0.6-0.5-1,0.2-1,0.2
			c-0.2,0.1-0.3,0.3-0.4,0.5c-0.8,0.4-1.1,1.3-1.8,1.7c-0.5,0.5-1,0.8-1.5,1.3c-1,0.3-2.3,0.4-3.3,0.9c-0.8,0.3-1.6,0.4-2.3,0.7
			c-0.9,0.6-2,0.8-2.9,1.4c-0.2,0.1-0.5,0.2-0.4,0.5c0.1,0.2,0.4,0,0.6,0.2c0.2,0.1,0.6,0.1,0.6,0.4c-0.2,0.2-0.6,0.2-0.6,0.5
			c0.4,0.2,0.7,0.4,1.1,0.6c0.5,0.3,1,0.6,1.6,0.9c0.9,0.4,1.9,0.7,2.9,1.1c0.7,0.2,1.6,0.3,2.2,0.7c0.9,0.3,1.8,0.5,2.7,0.7
			c0.6,0.2,0,0.7,0.1,1.1c0,0.3-0.3,0.5-0.1,0.8c-0.4,0.7-0.5,1.5-0.4,2.3c-0.2,0.1-0.1,0.3-0.1,0.5c-0.2,0.4-0.3,0.9-0.4,1.4
			c-0.1,0-0.2,0.1-0.2,0.1c-0.1,0.7-0.1,1.2-0.2,1.9c0.4,0.2,0.9,0.1,1.4-0.1c-0.3-0.5,0.1-0.9,0.1-1.5c0.2-0.3,0-0.6,0.1-1
			c0.4-1.3,0.4-2.6,0.5-3.9c-0.1-0.2-0.2-0.4,0.1-0.5l0.1,0.2c-0.1,0.5,0.1,1,0,1.4c0.3,0.9,0,1.9,0.2,2.9c0.6,0.3-0.2,1,0.4,1.4
			c0,0.2,0.1,0.4,0.2,0.6c0.3,0.1,0.6-0.1,1-0.4c0.1-0.9-0.4-1.5-0.4-2.3c-0.2-0.6-0.1-1.1-0.4-1.6c0-0.5-0.2-1-0.3-1.5
			c-0.3-0.2-0.1-0.6-0.1-0.9c-0.1-0.5-0.1-1.3-0.7-1.5c-1.1-0.1-2.2-0.6-3.3-0.9c-0.7-0.1-1.3-0.5-2-0.6c-0.2-0.1-0.5-0.2-0.8-0.3
			c-0.6-0.1-1.2-0.4-1.8-0.6c-0.2,0-0.3-0.1-0.5-0.1c0,0-0.1,0-0.1-0.1c-0.3-0.1-1.6-0.6-1.8-0.7c-0.3-0.4,0.2-0.4,0.2-0.4
			c0.1,0,1.3,0.6,1.4,0.6c0.2,0,0.3,0.2,0.5,0.2c0.2,0.1,0.5,0.1,0.7,0.2c0.8,0.5,1.7,0.7,2.6,1c0.3,0.1,0.6,0.2,0.8,0.3
			c0.1,0.1,0.3,0.1,0.5,0.2c0.6,0.3,1.2,0.2,1.7,0.6c0.4-0.2,0.6,0.3,0.9,0.3c0.5,0.3,1.3,0,1.7,0.5c0.4,0.6,0.3,1.5,0.6,2.2
			c-0.3,0.6,0.5,0.8,0.3,1.3c0.1,0.3,0.3,0.7,0.6,0.8c0.2,0,0.4,0,0.6-0.2c0-0.4-0.2-0.6-0.3-0.9c0.1-0.6-0.4-1.1-0.4-1.7
			c-0.1-0.4-0.1-0.9-0.5-1.2c-0.2-0.4-0.6-0.8-0.4-1.3c-0.1-0.1-0.4,0-0.5-0.1c-0.4-0.3-1-0.3-1.5-0.4c-0.4-0.2-0.9-0.4-1.4-0.6
			c-0.5-0.1-1-0.2-1.5-0.3v-0.1c-0.5,0.2-0.9-0.4-1.4-0.5c-0.3-0.3-0.9,0-1.2-0.4c-0.3,0-0.6,0-0.9-0.2c-0.4,0-0.9,0-1.1-0.4
			c-0.4-0.1-0.7-0.2-1.1-0.2c-0.1,0-0.2-0.1-0.3-0.1c-0.1-0.1-0.2-0.1-0.3-0.1c-0.3,0-0.6-0.1-0.5-0.3c0-0.1,0.7-0.2,0.7-0.3
			c0.1,0,0.2,0,0.3-0.1h0c1.2-0.5,2.5-0.8,3.6-1.4c0.9,0,1.7-0.3,2.6-0.4c1-0.7,1.7-1.8,2.8-2.3c0.5-0.4,0.8-1.4,1.5-1
			c0.3-0.1,0.4,0.1,0.7,0c0.2-0.3,0.5-0.5,0.4-0.8C97,27.7,96.5,27.2,96.5,27.2z M95.2,13.6c0.1,0.1,0.1,0.2,0.1,0.3
			c0,1,0,2.2,0.4,3.2c0.3,1.3,0.6,2.7,0.9,4c0.1,0.6-0.9,0.6-0.6,1.3c0.1,0.6-0.3,0.8-0.6,1.2c0.2,0.1,0.3,0.3,0.5,0.4
			c0.2,0.3,0.5,0.5,0.9,0.3c0,0,0.6-0.2,0.5-0.7c0-0.4,0.1-1,0.3-1.2c-0.1-0.4,0.1-0.8-0.2-1.1c0.1-0.8-0.3-1.5-0.5-2.2
			c0-0.5-0.2-0.9-0.2-1.4c-0.3-1.2-0.6-2.5-0.7-3.7l0.2-0.2c0.4-0.1,0.5,0.4,0.9,0.5c0.2,0.6,0.8,0.9,1.1,1.4c1,0.9,1.8,1.8,2.6,2.8
			c1.1,1,2.1,1.9,3,3c0.3,0.3,0.7,0,1,0.3c0.5-0.3,1.5-0.1,1.4-1c0.1-0.1,0.3-0.2,0.4-0.2c0.4,0.3,0.9,0,1.3-0.1
			c1.1-0.1,2.2-0.3,3.2-0.5c0.2,0,0.3-0.2,0.3-0.4c-0.1-0.2-0.3-0.3-0.4-0.3c-1.1,0.3-2.2,0.7-3.3,0.6l-0.1-0.1
			c0.1-0.3,0.6-0.1,0.8-0.3c0.8,0,1.5-0.2,2.3-0.5c0.5-0.5,1.2,0.4,1.5-0.5c0.2-0.4,1.2-0.3,0.7-0.9c-0.3,0-0.7-0.1-0.9,0.3
			c-0.7-0.1-1,0.5-1.6,0.5c-0.1,0-0.2-0.1-0.1-0.2c0.8-0.5,1.7-0.6,2.4-1.1c0-0.2,0-0.3-0.2-0.3c-1.2,0.3-2.2,0.9-3.3,1.3
			c-0.3,0.2-0.6,0.6-1,0.6c-0.6,0.4-1.3,0.5-1.9,1c-0.3,0.1-0.6-0.1-0.9,0.1c-0.3-0.2-0.6-0.5-0.8-0.8c-1.1-1.2-2.5-2.2-3.7-3.5
			c-1.1-0.7-2.1-1.5-3-2.5l-0.6-0.5c-0.3,0-0.5,0.1-0.7,0.3c0,0,0,0,0,0.1c0,0-0.1,0-0.1,0c-0.1,0-0.1,0-0.2,0c-0.1,0-0.1,0-0.2,0
			c-0.1,0-0.2-0.1-0.2-0.1c-0.2,0-0.3,0.1-0.5,0c0,0-0.5-0.2-0.3,0.3C95.2,13.3,95.2,13.5,95.2,13.6L95.2,13.6z M104.3,20.6
			c-0.2,0-0.1-0.2-0.3-0.3c-0.7-0.5-1.3-1.3-1.9-1.9c-0.3-0.3-0.6-0.7-0.9-0.9c-1.1-0.9-2-2.1-3.1-2.9c-0.3-0.4-0.6-0.8-0.9-1
			c0-0.1,0-0.3,0.1-0.3c0.2,0,0.3,0.1,0.3,0.3c0.8,1.2,1.9,1.6,3,3.1c0.2,0,0.2,0.1,0.2,0.3c1.2,1.2,2.6,2.3,3.8,3.5
			C104.7,20.5,104.4,20.5,104.3,20.6L104.3,20.6z"/>
		<path id="core_00000165216052643619862550000009174716794766999943_" d="M84.8,17.2c0.5-0.1,1.2-0.7,1.6-0.1c0.1,0,0.1,0,0.2-0.1
			c0.2,0,0.2,0.2,0.2,0.4c0.1,0,0.1-0.1,0.2-0.1c0-0.4,0.3-0.5,0.5-0.8c0.4-0.2,0.9-0.4,1.3-0.5c0-0.2-0.1-0.3-0.4-0.4
			c0,0.1-0.1,0.1-0.1,0.2c-0.5,0-0.7,0.7-1.2,0.6l0-0.3c0.5-0.3,0.7-0.8,0.8-1.3c-0.2-0.3-0.6,0-0.8,0c-0.3-0.4-0.7-0.4-1.2-0.4
			c-0.5-0.5-0.8-1.1-1.5-1.2c-0.2-0.3-0.4-0.5-0.4-0.8c0.2-0.4,0.5,0.1,0.8,0.1c1.4,0.5,2.5,1.7,4,1.8c0.3,0.5,1,0.5,1.5,0.6
			c0.4,0.4,0.9,0.2,1.4,0.3c0.6,0.3,1.5,0.2,2.2,0.4c0.2,0.2,0.2,0.7,0.5,0.5c0.1,0.6,0.6,0.9,0.8,1.4c0.5,0.4,0.3,1.2,0.4,1.7
			c0.1,0.4-0.1,0.7,0.3,1c0,0.6-0.3,1.2-0.9,1.5c-0.3,0.6-1.1,0.4-1.6,0.6c-0.4,0.4-0.8,0.5-1.2,0.9c-0.3,0.5-0.6,1-0.5,1.7
			c0,0.4,0,0.7-0.1,1.1c-0.2,0.4-0.2,0.9-0.2,1.4c-0.2,0.5,0,1.3-0.7,1.5c-0.1-0.1-0.4-0.1-0.3-0.4c-0.4-0.2,0.1-0.6-0.3-0.8
			l0.2-1.1c0.1-0.2,0.2-0.4,0.2-0.7c0.3-0.9,0.3-1.9,1-2.7c0-0.2-0.2-0.3-0.4-0.3l-1.4,1.1c-0.5,0.5-0.5,1.2-0.6,1.9
			c-0.1,0.5-0.2,1.1-0.6,1.5c-0.1,0.7,0.3,1.4,0,2.1c-0.3,0.1-0.6,0.3-0.8,0.1c-0.5-1-0.1-2.3,0.3-3.3c0.1-0.1,0.2-0.2,0.2-0.3
			c0.4-0.7,0.3-1.7,1.2-2c0-0.1,0-0.3-0.2-0.3l-0.6,0.3c-0.2,0.1-0.5,0-0.7,0.2c-0.3,0.6-0.8,1.1-0.9,1.8c-0.8,1-0.5,2.6-0.9,3.8
			l-0.4,0.4c-0.2,0.1-0.4,0-0.5-0.1c-0.2-0.8,0.1-1.5,0.1-2.3c0.1-0.6,0.2-1.1,0.6-1.6c0-0.1,0-0.2,0-0.2c0.1-0.6,0.8-1,1.1-1.5
			l-0.1-0.2c-0.3,0-0.3,0.3-0.4,0.4c-0.5,0.4-0.9,0.8-1.2,1.4c-0.2,0.2-0.3,0.5-0.5,0.7c-0.6,0.6-0.6,1.4-0.9,2.2
			c-0.4,0.5,0.1,1.3-0.4,1.7c-0.2,0.1-0.5,0.1-0.8,0c-0.3-0.3,0-0.7,0-1c0.2-0.6,0.1-1.3,0.2-1.8c0.4-0.6,0.8-1.2,1.3-1.7
			c0.2-0.3,0.5-0.5,0.8-0.7v-0.4c-0.2-0.1-0.4,0.2-0.6,0.4c-0.2,0.3-0.4,0.5-0.6,0.8c-1.1,1.4-2.4,2.8-2.1,4.8
			C81.3,31,81,31,80.7,31c-0.3-0.1-0.4-0.5-0.4-0.8c0.3-0.8,0.1-1.9,0.9-2.5c-0.1-0.7,0.8-1,1-1.5c0.2,0,0.3-0.2,0.3-0.3
			c0.1-0.1,0.1-0.1,0.2,0c0-0.3,0.2-0.5,0.3-0.8c-0.1-0.1-0.1-0.3-0.3-0.2c-0.5,0.3-0.9,0.6-1.2,1c-0.9,1-1.6,2.3-2,3.6
			c-0.2,0.5-0.2,1.1-0.6,1.5c-0.3,0.1-0.6,0-0.8-0.2c-0.2-1.1,0.4-2,0.7-3c0.2-0.3-0.1-0.7,0.2-0.9c0.4-0.4,0.6-0.8,0.9-1.1
			c0.3-0.3,1-0.2,1.1-0.8c0-0.5-0.9-0.2-0.9-0.2c-0.1,0.1-0.6,0.1-0.6,0.1c-0.1-0.1-0.3-0.1-0.4,0c-0.2,0.2-0.9,0.3-1.2,0.4
			c-0.2,0.2-0.3,0.3-0.4,0.5c-0.3,0.4-0.4,1-0.3,1.4c-0.1,0.6-0.1,1.2-0.1,1.9c0.1,0.5,0.2,1,0.2,1.6l0,0.6l0.4,0.2
			c-0.2,0.1-0.3,0.3-0.4,0.5c-0.3,0.4-0.3,0.8-0.4,1.3c-0.2,0.2-0.4,0.5-0.5,0.9c0,0.8-0.9,0.8-1.4,1.1c-0.8-0.2-1.6-0.3-2.4-0.5
			c-0.4-0.4-1-0.4-1.5-0.6c-1-0.1-1.7-0.9-2.5-1.5c-0.8-0.4-1.6-0.9-2.3-1.4c-0.3-0.2-0.6-0.2-0.9-0.4c0,0-0.1,0.1-0.1,0.1
			c-0.2-0.6-0.8-0.9-1.4-0.8c-0.1,0-0.2,0.1-0.2,0.1c-0.6,0.6-1.4,0.7-2.1,1c-0.2,0.1-0.5,0.2-0.6-0.1c0.1-0.6,0.6-1.1,0.8-1.7
			c1.6-0.7,3.2,0.1,4.5,0.8c0.6,0.4,1.1,0.9,1.8,1.1c0.9,0.7,1.8,1.4,2.8,1.9c0.6,0,1.1,0.3,1.6,0.5c0.5,0.2,1.1,0.1,1.5,0.4
			c0.3,0,0.6,0.1,0.8-0.2c0.4-0.8,1.4-1,1.4-2c0.8-1.1-0.1-2.2,0-3.4c0.2-0.3,0.3-0.7,0.1-1c0.2-0.6,0.3-1.1,0.5-1.7
			c0.1-0.2,0.6-0.6,0.4-0.9c-0.5-0.3-0.8,0.8-1.2,0.7c-0.4-0.2,0.3-0.5-0.1-0.8l-1,0.9l-0.1,0.1l-0.3,0.1c-0.5,0.6-1.3,0.6-1.7,1.3
			c-0.3,0-0.6,0.1-0.8,0.2C71.6,28,70.8,28,70.8,28c-0.3,0-0.6,0.1-0.8,0.3c-0.3,0.1-0.6,0.2-0.9,0.2c-0.6,0.4-1.3,0.2-2,0.2
			c-0.4-0.1-0.1-0.6-0.5-0.7c-0.3-0.7-0.5-1.3-0.7-2c-0.1-0.3-0.1-0.6-0.2-1c-0.7-0.9-0.2-2.2-1-3.1c-0.4-0.1-0.5-0.6-0.6-0.9
			c-0.5-0.3-0.4-0.9-0.8-1.2c-0.3-0.7-0.8-1.2-1.1-1.9l-0.2-0.1c-0.6,0.3-0.3,1.1-0.4,1.7c-0.3,0.3,0,0.7-0.1,1.1
			c-0.1,1.2-0.4,2.3-0.6,3.4c-0.3,0.5,0,1.3-0.3,1.8c-0.1,0.1-0.1,0.2-0.3,0.3c-0.2,0.1-0.5,0-0.6-0.2c0,0,0-0.1,0-0.1
			c0.2-1.1,0.3-2.2,0.3-3.3c0.3-0.4,0.2-1,0.4-1.5c0.1-0.5,0.3-1,0.1-1.4c-0.4,0.3-0.5,0.9-0.6,1.4c-0.3,0.8-0.3,1.7-0.9,2.4
			c-0.1,0.3-0.2,0.7-0.6,0.7c-0.6-0.2,0.1-0.8,0.1-1.3c0.6-0.5,0.3-1.3,0.4-2c0.1-0.8,0.8-1.2,1-2c-0.3-0.3-0.6,0.1-1,0.1
			c-0.6,1.2-1.9,0.6-2.7,1.2c-0.4,0.5-1,0.5-1.3,0.6c-0.3-0.3-0.3-0.5,0-0.9c0.4,0.1,0.7,0,1-0.3c0.8-0.1,1.3-0.7,1.9-1.1
			c0.5-0.4,1.2-0.5,1.7-0.9c0.1,0,0.5,0.1,0.5-0.2c-0.6-0.7,0.6-0.3,0.7-0.8c0.2-0.7,1-0.5,1.5-0.8c0.2-0.1,0.5-0.2,0.7,0
			c0.7,0.3,0.8,1,0.9,1.5c-0.1,0.2-0.1,0.5-0.4,0.4c-0.2-0.3-0.4-0.7-0.5-1c-0.2,0.1-0.4,0-0.5,0.2c-0.1,0.4,0.4,0.3,0.5,0.6
			c0,0.6,0.6,0.7,1,1l0.5,1c0.4,0.9,0.9,1.8,1.2,2.7c0.7,1.3,1.2,2.7,1.4,4.2c-0.1,0.6,0.5,1,0.8,1.3c0.7,0.1,1.4-0.1,1.9-0.6
			c0.7-0.2,1.4-0.3,2-0.6c0.6-0.5,1.3-0.8,1.9-1.4c0-0.4,0.1-0.6,0.1-1.1c-0.1-0.8-0.7-0.2-0.9-0.6c-0.3-0.4,0.5-0.5,0.2-0.9
			c-0.6-0.9-1.7-0.7-2.5-1.1c-0.6-0.5-0.8-1.2-1.2-1.8c-0.3-0.3-0.8-0.3-1.1-0.3c-0.6-0.2-0.8-0.9-1.4-0.9c-0.7-0.8-1.7-1-2.4-1.8
			c-0.2-0.1-0.6-0.1-0.5-0.4c-0.6-0.5-1.3-0.9-1.8-1.4c-0.3-0.1-0.5,0-0.7-0.2c-0.1-0.6-0.8-0.5-1.3-0.7c-0.5-0.8-1.6-0.4-1.8-1.3
			c-1,0-1.8-0.6-2.7-0.9c-0.4-0.1-0.7-0.3-0.9-0.6c0-0.2,0.1-0.5,0.2-0.6c0.7,0.4,1.3,0.6,2,1c0.5,0,0.8,0.3,1.2,0.4
			c1.2,0.1,1.9,1.2,3,1.7c0.6-0.2,0.9,0.5,1.4,0.7c0.4,0.1,0.7,0.6,1.1,0.8c0.5,0.4,1.1,0.6,1.6,1c0.5,0.5,0.8,1.4,1.6,1.3
			c0.6,0.2,0.8,0.8,1.3,1.2c0.6-0.2,1,0.3,1.4,0.5c0.1,0.3,0.3,0.4,0.6,0.6c0.3,0.2,0.6,0.5,0.4,0.9c0.3,0.3,0.2-0.4,0.5-0.4
			c0.1,0,0.1,0.1,0.1,0.2h0.6c0.5,0.3,0.7,0.9,1.1,1.3c0.2,0.3,0.5-0.2,0.6,0.2c0.6,0,0.8,0.7,1.4,0.8c0.5-0.1,1.1,0.1,1.6,0.3
			c0.4,0,0.4,0.5,0.6,0.7c0.5-0.3,1.1-0.3,1.8-0.3c0.1,0,0.2,0.1,0.3,0.2c0.4,0.2,0.8,0.2,1.2,0.3c0.4,0,0.8,0,1.2,0
			c0.4-0.1,0.8-0.1,1.2,0c0.8-0.1,1.1,0.1,1.2,0.3c0.1,0.1,0.2,0.1,0.3,0.2c0.2-0.2,0.2-0.6,0.5-0.5c0,0,0.1,0.1,0.1,0.1
			c0.1,0,0.2,0,0.2-0.1c0.5,0,0.8-0.6,1.3-0.7c0.2-0.1,0.4-0.5,0.6-0.3c0.5-0.4,1.1-0.1,1.7-0.2c1-0.3,2.1-0.3,2.8-1
			c0.3-0.1,0.6,0.1,0.8-0.3c0.4-0.1,0.8-0.2,1.2-0.5c0.6-0.3,0.4-1,0.5-1.5h0v-0.4c-0.3-0.4-0.1-1.1-0.5-1.5c-0.7,0-0.7-1-1.5-0.9
			c-0.5,0.1-1-0.1-1.5-0.1c-0.9,0.6-2.3,1-2.6,2.3c-0.2,0.2-0.6,0.4-0.4,0.7c-0.1,0.2-0.3,0.2-0.5,0.2c-0.4-0.2-0.2-0.7-0.3-1
			c0.1-0.2,0.2-0.5,0.2-0.8l-0.2,0c-0.3,0.3-0.6,0.1-0.8-0.2c-0.5,0.3-0.9,0.8-1.4,0.9c-0.4-0.1-0.8-0.3-1.2-0.6
			c-0.3,0.1-0.6-0.2-0.8,0c-0.3-0.4-0.6-0.8-0.8-1.2l0,0c-0.1,0-0.3-0.1-0.2-0.3c0,0,0.1,0,0.2,0C81.2,16,81,15.3,81,14.6
			c-0.4-0.6-0.4-1.3-0.7-1.9c-0.8-0.9-1.1-2.1-1.5-3.1c0.1-0.3,0.3-0.6,0.7-0.5c0.6,0.4,1.3,0.5,2,0.8c0.1,0.1,0.3,0.4,0,0.5
			c-0.4-0.2-0.9,0.2-1.2-0.3c-0.2,0-0.3,0.1-0.4,0.2c0,0.2,0.2,0.4,0.4,0.5c0.2,0.6,0.7,1.1,0.8,1.7c0.4,0.2,0.1,0.7,0.5,0.9
			c-0.1,0.3,0.2,0.6,0.1,1c0.4,0.2,0.3,0.7,0.6,1c0.3,0.9,0.8,1.8,1.7,2.3c0.2,0,0.3-0.1,0.5-0.2l0,0C84.4,17.3,84.6,17.2,84.8,17.2
			z"/>
		<path id="eye_00000096035337066877980500000011492547276756782466_" d="M83.6,16c0,0-0.1-0.1-0.1-0.1c0-0.1,0-0.2,0-0.3
			c0.4-0.6,0.7,0.2,1.1,0.1c0-0.6-0.3-1.1-0.9-1.3c-0.1-0.4-0.6-0.4-0.7-0.8c-0.3,0-0.4-0.5-0.8-0.5c-0.2,0.1-0.5,0.2-0.5,0.4
			c0.5,0.9,0.7,1.9,1.3,2.7C83,16.3,83.9,16.7,83.6,16z"/>
	</g>
	<g id="word_00000013909000679655979270000010771763822468768416_">
		<path id="x_00000147208958940597126540000000031827349794035343_" d="M128.1,63.3c0,0,4.5,6.7,4.9,7.1s0.5,0.4,0.5,0.4
			s-1.3,0-1.9,0s-1.6,0.1-1.6,0c0.1-0.4,0.1-0.8-0.2-1.2c-0.3-0.5-2.8-4.3-3-4.5c-0.2,0.2-2.7,4-2.9,4.5c-0.2,0.3-0.3,0.8-0.2,1.2
			c0,0-0.7,0-1.4,0s-1.9,0-1.9,0s0.2,0,0.5-0.4c0.4-0.3,4.9-7,4.9-7s-4.3-6.6-4.9-6.9c-0.5-0.3-0.4-0.4-0.4-0.4s1.1,0,1.8,0
			s1.5-0.1,1.5,0c-0.1,0.4-0.1,0.8,0.2,1.2c0.3,0.5,2.8,4.2,2.9,4.4c0.2-0.2,2.6-3.9,2.9-4.3c0.2-0.4,0.3-0.8,0.2-1.3
			c0,0,0.8,0,1.5,0s1.8,0,1.8,0c-0.2,0.1-0.5,0.3-0.7,0.5C132.3,56.9,128.1,63.3,128.1,63.3z"/>
		<path id="y_00000109747468630467050830000014823496423040085652_" d="M114.7,63.6v4.1c0,0.7,0,2.2-0.2,2.7s-0.3,0.3-0.2,0.4
			c0,0.1,0.1,0,0.1,0c0.5,0,0.6-0.1,1.4-0.1c0.6,0,0.8,0,1.3,0c0,0,0.1,0,0.1,0s-0.2-0.2-0.3-0.5c-0.1-0.6-0.2-1.2-0.2-1.8v-4.9
			c0,0,4.5-7,4.8-7c0.3,0,0.5-0.2,0.7-0.4h-1.9c-0.6,0-1.3-0.1-1.3,0c0.1,0.4,0,0.8-0.2,1.2c-0.3,0.5-2.8,4.4-3,4.6
			c-0.2-0.2-2.8-4.1-3-4.5c-0.2-0.4-0.3-0.8-0.2-1.2c0,0-0.9,0-1.5,0s-1.9,0-1.9,0s0.2,0,0.5,0.4C110.2,56.8,114.7,63.6,114.7,63.6z
			"/>
		<path id="r2_00000164484317738207799080000014880228287378153397_" d="M103.5,64.1c0,0,3.7,5.2,4,5.6c0.5,0.8,1.4,1.3,2.3,1.3
			c0.4,0,0.8,0,1.2-0.1c0,0-0.1,0-0.5-0.4c-0.8-0.7-4.4-6-4.4-6c1.6-0.7,3.4-1.7,3.3-4.2c-0.1-3.5-2.5-4.4-6.2-4.3c-0.4,0-1.5,0-2,0
			c-0.7,0-0.9-0.1-1.5-0.1c0,0-0.1,0-0.1,0c0,0.1,0.2,0.2,0.2,0.2c0.3,0.4,0.3,2.4,0.3,3c0,1.4,0,8,0,9c0,0.7,0,1.5-0.2,1.9
			c-0.2,0.4-0.3,0.3-0.2,0.4s0.1,0,0.1,0c0.5,0,0.7-0.1,1.4-0.1c0.6,0,0.7,0,1.2,0c0,0,0.1,0,0.1,0s-0.2-0.2-0.3-0.5
			c-0.1-0.6-0.2-1.2-0.2-1.8c0,0,0-9.6,0-10.6c0-0.7,0.3-0.7,1.2-0.7c2.8,0,4.1,1.4,4.1,3.5C107.3,62.8,106.1,63.9,103.5,64.1z"/>
		<path id="e_00000135660207392141712290000014408044600831487377_" d="M90.3,62.4h3.3c0.7,0,2,0,2.4,0s0.4-0.3,0.5-0.3
			c0.1,0,0,0.1,0,0.1c0,0.5,0,0.3,0,1c0,0.7,0,0.4,0,1c0,0,0,0.1,0,0.1s0-0.1-0.4-0.2c-0.4-0.1-1.8-0.1-2.5-0.1h-3.3v5.1H95
			c0.6,0,1.2-0.1,1.7-0.2c0.3-0.1,0.5-0.4,0.6-0.3c0.1,0,0,0.1,0,0.1c0,0.5-0.1,1-0.2,1.6l0,0.5h-7.8c-0.7,0-0.8,0.1-1.3,0.1
			c0,0-0.1,0-0.1,0s0,0,0.2-0.4c0.2-0.4,0.2-1.2,0.2-1.9c0-1.2,0-3.3,0-5.3c0-2,0-3.5,0-4.8c0-0.7,0-1.5-0.2-1.9
			c-0.2-0.4-0.3-0.3-0.2-0.4s0.1,0,0.1,0c0.5,0,0.6,0.1,1.3,0.1h4.8c1.3,0,2,0,2.8,0v0.5c0,0.6,0,0.9,0,1.5c0,0,0,0.1,0,0.1
			s-0.2-0.2-0.5-0.3c-0.6-0.2-1.1-0.2-1.7-0.2h-4.3L90.3,62.4z"/>
		<path id="t_00000021818760725472790990000008032687920460544185_" d="M80.1,57.8c0,1.2,0,8,0,10.6c0,0.6,0,1.5-0.2,1.9
			c-0.2,0.4-0.3,0.3-0.2,0.4c0,0.1,0.1,0,0.1,0c0.5,0,0.6-0.1,1.3-0.1c0.6,0,0.8,0,1.3,0c0,0,0.1,0,0.1,0c0-0.1-0.2-0.2-0.3-0.5
			C82.1,69.6,82,69,82,68.4c0-2.7,0-9.8,0-10.6h2.1c0.6,0,1.8,0.1,2.1,0.2s0.4,0.3,0.5,0.3c0.1,0,0-0.1,0-0.1c0-0.5,0-1.4,0-2h-12
			c0,0.6-0.2,1.6-0.2,2.1c0,0,0,0.1,0,0.1c0.1,0,0.2-0.2,0.5-0.3c0.7-0.2,1.5-0.2,2.2-0.2L80.1,57.8"/>
		<polygon id="apos_00000100370643378739208380000000845667980373580470_" points="71.6,54.8 71.6,59.4 74.4,54.8 		"/>
		<path id="c_00000003092683059524886930000005640063207241648826_" d="M70.6,67.7c-1.3,1.6-3.4,2.1-5.4,2.1c-3.5,0-6-3.1-6-6.3
			c0-4,2.5-6.4,6.3-6.4c1.4,0,3.8,0.9,4.6,2.3c0.1,0.2,0.2,0.5,0.3,0.7h0.1c0,0,0-0.1,0-0.3c0-0.6-0.3-1.3-0.3-2
			c-0.1-0.5-0.1-0.9,0-1.4c-0.2,0-0.3,0-0.5,0c-0.5-0.1-2.2-0.6-4.1-0.6c-5-0.1-8.2,2.7-8.4,7.6c-0.1,4.5,3.2,7.6,8.2,7.6
			c1.5,0,3.1-0.2,4.5-0.5l0.5-1.3c0.2-0.4,0.3-0.9,0.4-1.3L70.6,67.7z"/>
		<path id="r1_00000045608153413358596220000001999481269395165340_" d="M49.9,64.1c0,0,3.7,5.2,4,5.6c0.5,0.8,1.4,1.3,2.3,1.3
			c0.4,0,0.8,0,1.2-0.1c0,0-0.1,0-0.5-0.4c-0.8-0.7-4.4-6-4.4-6c1.6-0.7,3.4-1.7,3.3-4.2c-0.1-3.5-2.5-4.4-6.2-4.3c-0.4,0-1.5,0-2,0
			c-0.7,0-1-0.1-1.5-0.1c0,0-0.1,0-0.1,0c0,0.1,0.2,0.2,0.2,0.2c0.3,0.4,0.3,2.4,0.3,3.1c0,1.4,0,8,0,9c0,0.7,0,1.5-0.2,1.9
			c-0.2,0.4-0.3,0.3-0.2,0.4c0,0.1,0.1,0,0.1,0c0.5,0,0.7-0.1,1.4-0.1c0.6,0,0.7,0,1.2,0c0,0,0.1,0,0.1,0c0-0.1-0.2-0.2-0.3-0.5
			c-0.1-0.6-0.2-1.2-0.2-1.8c0,0,0-9.6,0-10.6c0-0.7,0.3-0.7,1.2-0.7c2.8,0,4.1,1.4,4.1,3.5C53.6,62.8,52.4,63.9,49.9,64.1z"/>
		<path id="a_00000036210441541180448740000002165642410166087058_" d="M38.9,56c0,0,3.7,8.5,5.3,12.2c0.3,0.7,0.7,1.4,1.1,2.1
			c0.3,0.4,0.4,0.4,0.4,0.4s-1.3,0-1.9,0c-0.6,0-1,0.1-1,0c0.1-0.4,0.1-0.8-0.1-1.2c0-0.1-0.3-0.8-0.5-1.1c-1.1-2.6-3.6-8.3-3.6-8.3
			c-0.2-0.4,0-0.4-0.2,0c0,0-2.5,5.8-3.6,8.3c-0.1,0.3-0.4,1-0.5,1.1c-0.2,0.4-0.2,0.8-0.1,1.2c0,0-0.2,0-0.9,0s-1.9,0-1.9,0
			s0.1,0,0.4-0.4c0.4-0.7,0.8-1.4,1.1-2.1c1.6-3.7,5.3-12.2,5.3-12.2C38.4,55.6,38.6,55.6,38.9,56z"/>
	</g>
</g>
</svg>
