<?xml version="1.0" encoding="utf-8"?>
<!-- Generator: Adobe Illustrator 26.2.1, SVG Export Plug-In . SVG Version: 6.00 Build 0)  -->
<svg version="1.1" id="Layer_1" xmlns="http://www.w3.org/2000/svg" xmlns:xlink="http://www.w3.org/1999/xlink" x="0px" y="0px"
	 viewBox="0 0 165 80" style="enable-background:new 0 0 165 80;" xml:space="preserve">
<style type="text/css">
	.st0{fill:#FFFFFF;}
	.st1{fill:#1D1D1B;}
	.st2{clip-path:url(#SVGID_00000031209516972943248510000003550322219638980797_);fill:#1D1D1B;}
	.st3{clip-path:url(#SVGID_00000066477482662660460630000016582563706360684677_);fill:#1D1D1B;}
	.st4{clip-path:url(#SVGID_00000073700128197822496610000011871887966780765107_);fill:#1D1D1B;}
	.st5{clip-path:url(#SVGID_00000102526968821995341780000000273014119449693116_);fill:#1D1D1B;}
	.st6{clip-path:url(#SVGID_00000182495101972512788550000008394198957267533501_);fill:#1D1D1B;}
	.st7{clip-path:url(#SVGID_00000153702298077222563680000013807691387536547993_);fill:#1D1D1B;}
	.st8{clip-path:url(#SVGID_00000054977695966474935000000012106727594372892088_);fill:#1D1D1B;}
	.st9{clip-path:url(#SVGID_00000161598466002370140230000000689262012965677961_);fill:#1D1D1B;}
	.st10{clip-path:url(#SVGID_00000173143121046005795380000016209487437451930299_);fill:#1D1D1B;}
	.st11{clip-path:url(#SVGID_00000016039534023386864450000016510264038156919448_);fill:#1D1D1B;}
	.st12{clip-path:url(#SVGID_00000114793991986346140510000017670217301883594428_);fill:#1D1D1B;}
	.st13{clip-path:url(#SVGID_00000135655232678570545640000008733691096423431827_);fill:#1D1D1B;}
	.st14{clip-path:url(#SVGID_00000088832749024668225810000006200278252256302998_);fill:#1D1D1B;}
	.st15{clip-path:url(#SVGID_00000124870453165314790930000016814147961103680911_);fill:#1D1D1B;}
	.st16{clip-path:url(#SVGID_00000057134701335492808460000009051235000468143514_);fill:#1D1D1B;}
	.st17{clip-path:url(#SVGID_00000096044051024001008200000008048536406203853717_);fill:#1D1D1B;}
	.st18{clip-path:url(#SVGID_00000176747182727398854840000013964318580801376412_);}
	.st19{fill-rule:evenodd;clip-rule:evenodd;fill:#231F20;}
	.st20{fill-rule:evenodd;clip-rule:evenodd;}
	.st21{fill:#231F20;}
	.st22{fill:#12110B;}
	.st23{clip-path:url(#SVGID_00000029758958191875174590000014108804542178551222_);fill:#1D1D1B;}
</style>
<g>
	<path class="st20" d="M88,21.3c-0.1,0.3,0.4,0.3,0.6,0.3c0.2,0,0.7,0.2,0.6-0.2C89.1,21,88.2,20.9,88,21.3z M88,12.4
		c-0.1,0.3-0.6,0.4-0.6,0.7c0,0.1,0.2,0.3,0.3,0.4c0.1,0.2,0,0.2,0,0.4c0,0.2,0,0.3,0.1,0.5c0.1,0.2,0.2,0.1,0.4,0.2
		c0.1,0,0.2,0.2,0.3,0.2c0.1,0,0.2,0,0.4,0c0.2,0,0.4,0.1,0.6,0.1c0.2,0,0.4,0.1,0.7,0.1c0.2,0,0.4-0.2,0.5-0.3
		c0.2-0.1,0.3-0.1,0.4-0.3c0.1-0.1,0.2-0.3,0.3-0.4c0.1-0.1,0.1-0.1,0.2-0.2c0.1,0,0.2,0,0.3,0c0.1-0.1-0.1-0.3-0.1-0.5
		c0-0.2,0.1-0.3,0.1-0.5c0.1-0.2,0-0.3,0.1-0.5c0.2,0.2,0.2-0.1,0.2-0.2c-0.1-0.2-0.1-0.3-0.2-0.5c-0.1-0.2-0.1-0.4,0-0.5
		c0.1-0.1,0.3-0.1,0.1-0.3c-0.3-0.3-0.2-0.5-0.3-0.9c-0.1-0.2-0.4-0.6-0.5-0.8c-0.2-0.3-0.7-0.4-1-0.5c-0.3-0.1-0.3-0.6-0.7-0.3
		c-0.2,0.1-0.2,0.2-0.4,0.1c-0.1,0-0.4-0.1-0.5-0.1c-0.2,0-0.3,0.1-0.4,0.2c-0.1,0.2,0,0.3,0,0.5c0,0.2,0,0.4-0.1,0.5
		c0,0.2,0,0.4,0,0.5c-0.1,0.3-0.1,0.7-0.1,1.1C88.1,11.6,88.2,12,88,12.4z M85.4,16.5c0.1-0.2,0.1-0.3,0.1-0.5c0-0.2-0.1-0.3,0-0.5
		c0.1-0.3,0.6-0.5,0.4-0.8c-0.1-0.2-0.2-0.2-0.2-0.5c0-0.2,0-0.5,0-0.7c0-0.2-0.1-0.5,0-0.6c0.1-0.2,0.4-0.3,0.5-0.5
		c-0.1-0.2-0.3-0.2-0.4-0.4c-0.1-0.2-0.1-0.5-0.1-0.7c0-0.3,0.2-0.5,0.2-0.8c0-0.2,0.2-0.5,0.2-0.7c0-0.2-0.1-0.5-0.1-0.7
		c0-0.3,0-0.5,0.1-0.8c0-0.7-0.5-0.7-1-0.7c-0.2,0-0.5-0.1-0.8-0.1c-0.1-0.5,0.4-0.3,0.6-0.4c0.2,0,0.2-0.1,0.5,0
		c0.1,0,0.3,0.1,0.4,0.2c0.3,0.1,0.7,0.1,1,0.1c0.2,0,0.3,0,0.5,0.1c0.1,0.1,0.2,0.2,0.4,0.2c0.1-0.4,0.3,0,0.5,0.1
		c0.3,0.2,0.3,0,0.5-0.1c0.4-0.2,0.9,0.2,1.4,0.2c0.3,0,0.4-0.1,0.7,0c0.3,0.1,0.5,0.2,0.8,0.2c0.3,0,0.5,0,0.7,0.1
		c0.2,0.1,0.3,0.3,0.5,0.4c0.1,0.1,0.2,0.1,0.3,0.1c0.1,0.1,0.2,0.1,0.3,0.2c0.2,0.2,0.3,0.2,0.4,0.5c0.1,0.2,0.2,0.3,0.1,0.5
		c0,0.2-0.2,0.3-0.3,0.4c0.2,0.1,0.5,0.1,0.6,0c0.1,0.2,0.1,0.7,0.1,1c-0.1,0.5-0.5,0-0.7,0.4c0.1,0.1,0.4,0.2,0.5,0.3
		c0.1,0.2-0.1,0.4-0.2,0.6c-0.1,0.4-0.3,0.7-0.6,1c-0.1,0.1-0.3,0.2-0.5,0.4c-0.1,0.1-0.1,0.4-0.3,0.5c-0.2,0.2-1.1-0.4-0.9,0.3
		c0.5,0.2-0.2,0.6-0.4,0.7c0.1,0.2,0.3,0.3,0.4,0.5c0.1,0.2,0.2,0.3,0.3,0.5c0,0.1,0,0.2,0.1,0.3c0.1,0.1,0.2,0.1,0.3,0.2
		c0.2,0.3-0.3,0.2,0,0.5c0.2,0.2,0.3,0.1,0.4,0.5c0,0.4,0.1,0.3,0.3,0.6c0.1,0.1,0.1,0.2,0.1,0.3c0.1,0.1,0.2,0.1,0.3,0.2
		c0.2,0.2,0.2,0.4,0.3,0.6c0.1,0.3,0.3,0.4,0.4,0.6c0.1,0.2,0.2,0.5,0.4,0.7c0.2,0.2,0.5,0.2,0.7,0.4c0.1,0.1,0.1,0.2,0.2,0.3
		c0.1,0,0.2,0,0.3,0.1c0.1,0,0.1,0.2,0.2,0.3c0,0,0.3,0.2,0.3,0.2c0.3,0.1,0.5-0.1,0.7,0c0.2,0.2,0.2,0.4-0.1,0.4
		c-0.2,0-0.3-0.1-0.6-0.1c-0.3,0.1-0.4,0-0.8-0.1c-0.2-0.1-0.1-0.1-0.3-0.1c-0.1,0-0.2,0.1-0.3,0.1c-0.2-0.1-0.3-0.4-0.6-0.4
		c-0.2,0-0.2,0.1-0.3,0.1c-0.2,0-0.2,0-0.3-0.1c-0.3-0.1-0.5-0.2-0.7-0.4c-0.2-0.2-0.3-0.3-0.5-0.5c-0.2-0.2-0.2-0.4-0.4-0.5
		c-0.2-0.2-0.3-0.3-0.4-0.5c-0.2-0.4-0.4-0.7-0.5-1c-0.1-0.2-0.3-0.3-0.4-0.5c-0.2-0.3,0-0.3,0-0.5c-0.7-0.1-0.3-0.6,0.1-0.8
		c-0.1-0.2-0.5,0-0.7-0.2c-0.2-0.1-0.2-0.4-0.3-0.6c-0.1-0.1-0.1-0.2-0.1-0.4c0-0.1,0-0.2-0.1-0.3c-0.1-0.1-0.5,0-0.7-0.1
		c-0.2,0-0.5-0.1-0.7-0.1c-0.1,0-0.3,0.1-0.4,0c-0.1,0-0.2-0.2-0.2-0.2c-0.4-0.1-0.1,0.2-0.1,0.4c0,0.1-0.1,0.2-0.1,0.4
		c0,0.1,0,0.2,0,0.4c0,0.2,0,0.5-0.2,0.7c-0.1,0.1-0.5,0.1-0.5,0.3c0,0.2,0.3,0.2,0.4,0.4c0.2,0.2,0,0.5,0,0.7c0,0.3,0.1,0.5,0,0.7
		c0,0.2-0.1,0.4-0.1,0.6c0,0.3-0.1,0.4,0.1,0.7c0.1,0.1,0.4,0.2,0.3,0.5c-0.2,0.4-0.6,0-0.9,0c-0.2,0-0.3,0.1-0.5,0
		C85.9,21,86,20.9,86,20.6c-0.2-0.1-0.3,0.2-0.5,0.3c-0.2,0.1-0.4,0-0.7,0c-0.1,0-0.2,0.1-0.3,0.1c-0.2,0-0.2-0.1-0.3-0.1
		c-0.3-0.1-0.5,0.2-0.8,0.1c-0.4-0.1,0.6-0.5,0.9-0.5c0.2,0,0.4,0.3,0.5-0.1c0-0.1,0-0.3,0-0.4c0-0.1,0.1-0.3,0.2-0.4
		c0-0.1,0.2-0.2,0.2-0.3c0.1-0.2,0-0.2-0.1-0.4c-0.1-0.2,0-0.8,0.1-1c0.1-0.3,0.7-0.2,0.6-0.7C85.8,17,85.1,16.9,85.4,16.5z"/>
	<path class="st20" d="M88,21.3c-0.1,0.3,0.4,0.3,0.6,0.3c0.2,0,0.7,0.2,0.6-0.2C89.1,21,88.2,20.9,88,21.3z M88,12.4
		c-0.1,0.3-0.6,0.4-0.6,0.7c0,0.1,0.2,0.3,0.3,0.4c0.1,0.2,0,0.2,0,0.4c0,0.2,0,0.3,0.1,0.5c0.1,0.2,0.2,0.1,0.4,0.2
		c0.1,0,0.2,0.2,0.3,0.2c0.1,0,0.2,0,0.4,0c0.2,0,0.4,0.1,0.6,0.1c0.2,0,0.4,0.1,0.7,0.1c0.2,0,0.4-0.2,0.5-0.3
		c0.2-0.1,0.3-0.1,0.4-0.3c0.1-0.1,0.2-0.3,0.3-0.4c0.1-0.1,0.1-0.1,0.2-0.2c0.1,0,0.2,0,0.3,0c0.1-0.1-0.1-0.3-0.1-0.5
		c0-0.2,0.1-0.3,0.1-0.5c0.1-0.2,0-0.3,0.1-0.5c0.2,0.2,0.2-0.1,0.2-0.2c-0.1-0.2-0.1-0.3-0.2-0.5c-0.1-0.2-0.1-0.4,0-0.5
		c0.1-0.1,0.3-0.1,0.1-0.3c-0.3-0.3-0.2-0.5-0.3-0.9c-0.1-0.2-0.4-0.6-0.5-0.8c-0.2-0.3-0.7-0.4-1-0.5c-0.3-0.1-0.3-0.6-0.7-0.3
		c-0.2,0.1-0.2,0.2-0.4,0.1c-0.1,0-0.4-0.1-0.5-0.1c-0.2,0-0.3,0.1-0.4,0.2c-0.1,0.2,0,0.3,0,0.5c0,0.2,0,0.4-0.1,0.5
		c0,0.2,0,0.4,0,0.5c-0.1,0.3-0.1,0.7-0.1,1.1C88.1,11.6,88.2,12,88,12.4z M85.4,16.5c0.1-0.2,0.1-0.3,0.1-0.5c0-0.2-0.1-0.3,0-0.5
		c0.1-0.3,0.6-0.5,0.4-0.8c-0.1-0.2-0.2-0.2-0.2-0.5c0-0.2,0-0.5,0-0.7c0-0.2-0.1-0.5,0-0.6c0.1-0.2,0.4-0.3,0.5-0.5
		c-0.1-0.2-0.3-0.2-0.4-0.4c-0.1-0.2-0.1-0.5-0.1-0.7c0-0.3,0.2-0.5,0.2-0.8c0-0.2,0.2-0.5,0.2-0.7c0-0.2-0.1-0.5-0.1-0.7
		c0-0.3,0-0.5,0.1-0.8c0-0.7-0.5-0.7-1-0.7c-0.2,0-0.5-0.1-0.8-0.1c-0.1-0.5,0.4-0.3,0.6-0.4c0.2,0,0.2-0.1,0.5,0
		c0.1,0,0.3,0.1,0.4,0.2c0.3,0.1,0.7,0.1,1,0.1c0.2,0,0.3,0,0.5,0.1c0.1,0.1,0.2,0.2,0.4,0.2c0.1-0.4,0.3,0,0.5,0.1
		c0.3,0.2,0.3,0,0.5-0.1c0.4-0.2,0.9,0.2,1.4,0.2c0.3,0,0.4-0.1,0.7,0c0.3,0.1,0.5,0.2,0.8,0.2c0.3,0,0.5,0,0.7,0.1
		c0.2,0.1,0.3,0.3,0.5,0.4c0.1,0.1,0.2,0.1,0.3,0.1c0.1,0.1,0.2,0.1,0.3,0.2c0.2,0.2,0.3,0.2,0.4,0.5c0.1,0.2,0.2,0.3,0.1,0.5
		c0,0.2-0.2,0.3-0.3,0.4c0.2,0.1,0.5,0.1,0.6,0c0.1,0.2,0.1,0.7,0.1,1c-0.1,0.5-0.5,0-0.7,0.4c0.1,0.1,0.4,0.2,0.5,0.3
		c0.1,0.2-0.1,0.4-0.2,0.6c-0.1,0.4-0.3,0.7-0.6,1c-0.1,0.1-0.3,0.2-0.5,0.4c-0.1,0.1-0.1,0.4-0.3,0.5c-0.2,0.2-1.1-0.4-0.9,0.3
		c0.5,0.2-0.2,0.6-0.4,0.7c0.1,0.2,0.3,0.3,0.4,0.5c0.1,0.2,0.2,0.3,0.3,0.5c0,0.1,0,0.2,0.1,0.3c0.1,0.1,0.2,0.1,0.3,0.2
		c0.2,0.3-0.3,0.2,0,0.5c0.2,0.2,0.3,0.1,0.4,0.5c0,0.4,0.1,0.3,0.3,0.6c0.1,0.1,0.1,0.2,0.1,0.3c0.1,0.1,0.2,0.1,0.3,0.2
		c0.2,0.2,0.2,0.4,0.3,0.6c0.1,0.3,0.3,0.4,0.4,0.6c0.1,0.2,0.2,0.5,0.4,0.7c0.2,0.2,0.5,0.2,0.7,0.4c0.1,0.1,0.1,0.2,0.2,0.3
		c0.1,0,0.2,0,0.3,0.1c0.1,0,0.1,0.2,0.2,0.3c0,0,0.3,0.2,0.3,0.2c0.3,0.1,0.5-0.1,0.7,0c0.2,0.2,0.2,0.4-0.1,0.4
		c-0.2,0-0.3-0.1-0.6-0.1c-0.3,0.1-0.4,0-0.8-0.1c-0.2-0.1-0.1-0.1-0.3-0.1c-0.1,0-0.2,0.1-0.3,0.1c-0.2-0.1-0.3-0.4-0.6-0.4
		c-0.2,0-0.2,0.1-0.3,0.1c-0.2,0-0.2,0-0.3-0.1c-0.3-0.1-0.5-0.2-0.7-0.4c-0.2-0.2-0.3-0.3-0.5-0.5c-0.2-0.2-0.2-0.4-0.4-0.5
		c-0.2-0.2-0.3-0.3-0.4-0.5c-0.2-0.4-0.4-0.7-0.5-1c-0.1-0.2-0.3-0.3-0.4-0.5c-0.2-0.3,0-0.3,0-0.5c-0.7-0.1-0.3-0.6,0.1-0.8
		c-0.1-0.2-0.5,0-0.7-0.2c-0.2-0.1-0.2-0.4-0.3-0.6c-0.1-0.1-0.1-0.2-0.1-0.4c0-0.1,0-0.2-0.1-0.3c-0.1-0.1-0.5,0-0.7-0.1
		c-0.2,0-0.5-0.1-0.7-0.1c-0.1,0-0.3,0.1-0.4,0c-0.1,0-0.2-0.2-0.2-0.2c-0.4-0.1-0.1,0.2-0.1,0.4c0,0.1-0.1,0.2-0.1,0.4
		c0,0.1,0,0.2,0,0.4c0,0.2,0,0.5-0.2,0.7c-0.1,0.1-0.5,0.1-0.5,0.3c0,0.2,0.3,0.2,0.4,0.4c0.2,0.2,0,0.5,0,0.7c0,0.3,0.1,0.5,0,0.7
		c0,0.2-0.1,0.4-0.1,0.6c0,0.3-0.1,0.4,0.1,0.7c0.1,0.1,0.4,0.2,0.3,0.5c-0.2,0.4-0.6,0-0.9,0c-0.2,0-0.3,0.1-0.5,0
		C85.9,21,86,20.9,86,20.6c-0.2-0.1-0.3,0.2-0.5,0.3c-0.2,0.1-0.4,0-0.7,0c-0.1,0-0.2,0.1-0.3,0.1c-0.2,0-0.2-0.1-0.3-0.1
		c-0.3-0.1-0.5,0.2-0.8,0.1c-0.4-0.1,0.6-0.5,0.9-0.5c0.2,0,0.4,0.3,0.5-0.1c0-0.1,0-0.3,0-0.4c0-0.1,0.1-0.3,0.2-0.4
		c0-0.1,0.2-0.2,0.2-0.3c0.1-0.2,0-0.2-0.1-0.4c-0.1-0.2,0-0.8,0.1-1c0.1-0.3,0.7-0.2,0.6-0.7C85.8,17,85.1,16.9,85.4,16.5z"/>
	<path class="st20" d="M100,22.1c0-0.1,0.3-0.3,0.5-0.3c0-0.1-0.1-0.3-0.1-0.3c0-0.1,0-0.2,0.1-0.3c0.1-0.3,0.1-0.6,0.2-0.8
		c0.1-0.2,0.2-0.5,0.3-0.7c0.1-0.2,0.5-0.4,0.5-0.6c0-0.2-0.3-0.4-0.3-0.6c0-0.3,0.2-0.5,0.3-0.8c0.1-0.2,0.1-0.6,0.2-0.7
		c0.2-0.2,0.4-0.2,0.6-0.3c-0.1-0.2-0.5-0.4-0.5-0.7c0-0.3,0.3-0.7,0.4-0.9c0.1-0.3,0.1-0.8,0.3-1.1c0.2-0.4,0.4-0.1,0.7-0.4
		c-0.1-0.2-0.3-0.2-0.4-0.4c0-0.1,0-0.6,0-0.6c0.1-0.3,0.9-0.4,0.4-0.7c0,0,0,0,0,0.1c0-0.2,0.2-0.3,0.2-0.4c0-0.2-0.1-0.2-0.1-0.4
		c0.1-0.5,0.7-0.4,0.2-0.8c-0.1-0.1-0.2-0.1-0.3-0.1c-0.1-0.1-0.2-0.2-0.3-0.3c-0.2-0.1-0.7-0.3-0.9-0.2c0-0.4,0.6-0.2,0.8-0.2
		c0.1,0,0.3,0.1,0.4,0.1c0.1,0,0.3,0,0.4,0c0.1,0,0.1,0.3,0.2,0.4c0.1,0.1,0.3,0.1,0.5,0.1c0.4,0,0.6,0,1,0.2
		c0.3,0.1,0.5,0.2,0.7,0.3c0.4,0.2,0.5,0.1,0.9,0.2c0.8,0.1,1.5,0.6,2.3,0.7c0.1,0,0.2,0.1,0.4,0c0.1,0,0.3-0.1,0.4-0.1
		c0.3,0,0.6,0.2,0.6,0.5c0,0.2-0.4,0.4-0.4,0.7c-0.1,0.3-0.1,0.5-0.2,0.8c-0.1,0.2,0,0.5-0.3,0.7c-0.5,0.3-0.2-0.3-0.2-0.5
		c0-0.2-0.4-0.5-0.3-0.7c0.1-0.1,0.3-0.3,0.5-0.4c0.1,0.1,0.2,0.1,0.3,0.1c0.2-0.2,0.1-0.2,0-0.4c0,0-0.2,0-0.3,0
		c0,0-0.1-0.2-0.1-0.2c-0.1-0.1-0.2-0.3-0.3-0.2c-0.2,0.1-0.1,0.3,0,0.4c-0.3,0.4-0.4,0.1-0.6,0c-0.3-0.1-0.6,0-0.9-0.2
		c-0.3-0.1-0.5-0.3-0.8-0.5c-0.1,0-0.2-0.2-0.4-0.2c-0.2,0-0.1,0.3-0.3,0.4c-0.3-0.2-0.2-0.5-0.6-0.6c-0.3,0.2,0.1,0.4,0.1,0.6
		c0,0.2-0.3,0.4-0.3,0.6c-0.2,0.5,0,1.1-0.2,1.5c-0.1,0.2-0.1,0.4-0.2,0.6c-0.1,0.2-0.1,0.4-0.1,0.6c0,0.2-0.3,0.4-0.3,0.5
		c0,0.3,0.2,0.4-0.1,0.7c0.6,0.2,0.7,0,0.3,0.6c0.2,0.1,0.5-0.1,0.7-0.2c0.1,0.1,0.2,0.2,0.2,0.3c0.2-0.3,0.3-0.1,0.6,0
		c0.2,0.1,0.5,0.1,0.8,0.1c0.3,0.1,0.5,0.2,0.8,0.2c0.2,0,0.5-0.3,0.7-0.2c0.3,0.2,0,0.5-0.2,0.7c-0.1,0.2-0.1,0.5-0.2,0.7
		c-0.1,0.3-0.1,0.4-0.2,0.7c0,0.3-0.3,0.5-0.3,0.8c-0.5,0-0.1-0.9-0.6-1c0-0.4,0-0.4-0.2-0.6c0-0.1-0.2-0.2-0.2-0.3
		c-0.1-0.1-0.1-0.2-0.3-0.3c-0.3-0.1-0.4,0.1-0.7-0.1c-0.2-0.1-0.3-0.3-0.4-0.5c-0.3,0.3-0.2,0.3-0.7,0.2c-0.3-0.1-0.6-0.1-0.8,0.2
		c-0.2,0.3-0.1,1.2-0.1,1.5c0,0.5-1.2-0.3-1.2-0.1c-0.1,0.3,1,1,0.9,1.4c-0.1,0.3-0.2,0.5-0.3,0.8c-0.1,0.3,0,0.6-0.1,0.9
		c-0.1,0.3-0.4,0.5-0.2,0.8c0.2,0.3,0.5,0.1,0.8,0.3c0.1,0.1,0.2,0.3,0.3,0.3c0.1,0.1,0.4,0,0.5,0c0.2,0,0.3,0.2,0.5,0.3
		c0.1,0,0.4,0,0.5,0c0.3,0,0.6,0.2,0.9,0.1c0.4,0,1.1-1,1.4-0.3c0.1,0.3-0.5,1.3-0.7,1.6c-0.1,0.1-0.4,0.2-0.5,0.3
		c-0.2-0.2,0.1-0.7-0.1-0.9c-0.2-0.3-0.4,0.4-0.6,0.5c-0.4,0.2-0.4-0.2-0.7-0.3c-0.2-0.1-0.4,0-0.5,0c-0.1,0-0.3-0.2-0.4-0.2
		c-0.4-0.2-0.6-0.1-1-0.2c-0.4-0.1-0.7-0.4-1.1-0.5c-0.6-0.2-1.2-0.3-1.8-0.5c-0.2-0.1-2.1,0.1-1.8-0.5c0,0,0.4-0.1,0.4-0.1
		c0.3-0.1,0.1-0.2,0.4,0c0.2,0.1,0,0.2,0.3,0.2c0.1,0,0.4-0.2,0.4-0.2C99.9,22.2,99.9,22.2,100,22.1z"/>
	<path class="st20" d="M100,22.1c0-0.1,0.3-0.3,0.5-0.3c0-0.1-0.1-0.3-0.1-0.3c0-0.1,0-0.2,0.1-0.3c0.1-0.3,0.1-0.6,0.2-0.8
		c0.1-0.2,0.2-0.5,0.3-0.7c0.1-0.2,0.5-0.4,0.5-0.6c0-0.2-0.3-0.4-0.3-0.6c0-0.3,0.2-0.5,0.3-0.8c0.1-0.2,0.1-0.6,0.2-0.7
		c0.2-0.2,0.4-0.2,0.6-0.3c-0.1-0.2-0.5-0.4-0.5-0.7c0-0.3,0.3-0.7,0.4-0.9c0.1-0.3,0.1-0.8,0.3-1.1c0.2-0.4,0.4-0.1,0.7-0.4
		c-0.1-0.2-0.3-0.2-0.4-0.4c0-0.1,0-0.6,0-0.6c0.1-0.3,0.9-0.4,0.4-0.7c0,0,0,0,0,0.1c0-0.2,0.2-0.3,0.2-0.4c0-0.2-0.1-0.2-0.1-0.4
		c0.1-0.5,0.7-0.4,0.2-0.8c-0.1-0.1-0.2-0.1-0.3-0.1c-0.1-0.1-0.2-0.2-0.3-0.3c-0.2-0.1-0.7-0.3-0.9-0.2c0-0.4,0.6-0.2,0.8-0.2
		c0.1,0,0.3,0.1,0.4,0.1c0.1,0,0.3,0,0.4,0c0.1,0,0.1,0.3,0.2,0.4c0.1,0.1,0.3,0.1,0.5,0.1c0.4,0,0.6,0,1,0.2
		c0.3,0.1,0.5,0.2,0.7,0.3c0.4,0.2,0.5,0.1,0.9,0.2c0.8,0.1,1.5,0.6,2.3,0.7c0.1,0,0.2,0.1,0.4,0c0.1,0,0.3-0.1,0.4-0.1
		c0.3,0,0.6,0.2,0.6,0.5c0,0.2-0.4,0.4-0.4,0.7c-0.1,0.3-0.1,0.5-0.2,0.8c-0.1,0.2,0,0.5-0.3,0.7c-0.5,0.3-0.2-0.3-0.2-0.5
		c0-0.2-0.4-0.5-0.3-0.7c0.1-0.1,0.3-0.3,0.5-0.4c0.1,0.1,0.2,0.1,0.3,0.1c0.2-0.2,0.1-0.2,0-0.4c0,0-0.2,0-0.3,0
		c0,0-0.1-0.2-0.1-0.2c-0.1-0.1-0.2-0.3-0.3-0.2c-0.2,0.1-0.1,0.3,0,0.4c-0.3,0.4-0.4,0.1-0.6,0c-0.3-0.1-0.6,0-0.9-0.2
		c-0.3-0.1-0.5-0.3-0.8-0.5c-0.1,0-0.2-0.2-0.4-0.2c-0.2,0-0.1,0.3-0.3,0.4c-0.3-0.2-0.2-0.5-0.6-0.6c-0.3,0.2,0.1,0.4,0.1,0.6
		c0,0.2-0.3,0.4-0.3,0.6c-0.2,0.5,0,1.1-0.2,1.5c-0.1,0.2-0.1,0.4-0.2,0.6c-0.1,0.2-0.1,0.4-0.1,0.6c0,0.2-0.3,0.4-0.3,0.5
		c0,0.3,0.2,0.4-0.1,0.7c0.6,0.2,0.7,0,0.3,0.6c0.2,0.1,0.5-0.1,0.7-0.2c0.1,0.1,0.2,0.2,0.2,0.3c0.2-0.3,0.3-0.1,0.6,0
		c0.2,0.1,0.5,0.1,0.8,0.1c0.3,0.1,0.5,0.2,0.8,0.2c0.2,0,0.5-0.3,0.7-0.2c0.3,0.2,0,0.5-0.2,0.7c-0.1,0.2-0.1,0.5-0.2,0.7
		c-0.1,0.3-0.1,0.4-0.2,0.7c0,0.3-0.3,0.5-0.3,0.8c-0.5,0-0.1-0.9-0.6-1c0-0.4,0-0.4-0.2-0.6c0-0.1-0.2-0.2-0.2-0.3
		c-0.1-0.1-0.1-0.2-0.3-0.3c-0.3-0.1-0.4,0.1-0.7-0.1c-0.2-0.1-0.3-0.3-0.4-0.5c-0.3,0.3-0.2,0.3-0.7,0.2c-0.3-0.1-0.6-0.1-0.8,0.2
		c-0.2,0.3-0.1,1.2-0.1,1.5c0,0.5-1.2-0.3-1.2-0.1c-0.1,0.3,1,1,0.9,1.4c-0.1,0.3-0.2,0.5-0.3,0.8c-0.1,0.3,0,0.6-0.1,0.9
		c-0.1,0.3-0.4,0.5-0.2,0.8c0.2,0.3,0.5,0.1,0.8,0.3c0.1,0.1,0.2,0.3,0.3,0.3c0.1,0.1,0.4,0,0.5,0c0.2,0,0.3,0.2,0.5,0.3
		c0.1,0,0.4,0,0.5,0c0.3,0,0.6,0.2,0.9,0.1c0.4,0,1.1-1,1.4-0.3c0.1,0.3-0.5,1.3-0.7,1.6c-0.1,0.1-0.4,0.2-0.5,0.3
		c-0.2-0.2,0.1-0.7-0.1-0.9c-0.2-0.3-0.4,0.4-0.6,0.5c-0.4,0.2-0.4-0.2-0.7-0.3c-0.2-0.1-0.4,0-0.5,0c-0.1,0-0.3-0.2-0.4-0.2
		c-0.4-0.2-0.6-0.1-1-0.2c-0.4-0.1-0.7-0.4-1.1-0.5c-0.6-0.2-1.2-0.3-1.8-0.5c-0.2-0.1-2.1,0.1-1.8-0.5c0,0,0.4-0.1,0.4-0.1
		c0.3-0.1,0.1-0.2,0.4,0c0.2,0.1,0,0.2,0.3,0.2c0.1,0,0.4-0.2,0.4-0.2C99.9,22.2,99.9,22.2,100,22.1z"/>
	<path class="st20" d="M72.7,8.3c-0.2-0.2-0.3-0.5-0.7-0.6c-0.2,0-0.4,0-0.6,0c-0.2,0-0.3-0.1-0.5-0.1c0.1-0.2,0.5-0.2,0.8-0.2
		c0.1,0,0.2,0,0.3,0c0.2,0,0.2,0,0.4-0.1c0.3-0.1,0.5-0.2,0.8-0.2c0.4,0,0.3,0.2,0.6,0.4c0.3,0.2,0.4-0.1,0.6-0.2
		c0.2-0.2,0.4-0.3,0.7-0.2c0.3,0,0.4,0.1,0.7,0.1c0.3,0,0.6-0.1,0.8-0.1C77,7,77.2,7,77.5,7.1c0.1,0,0.2,0.2,0.4,0.2
		c0.2,0,0.3-0.1,0.5,0c0.3,0,0.5,0.2,0.7,0.3c0.3,0.1,0.5,0.1,0.8,0.3c0.3,0.2,0.3,0.4,0.4,0.7c0.2,0.2,0.4,0.4,0.5,0.6
		c0.1,0.3,0.2,0.5,0.2,0.8c0,0.1,0.1,0.3,0,0.4c0,0.1-0.2,0.2-0.2,0.3c0,0,0,0,0,0.1c0.1,0.1,0.3,0.3,0.2,0.5
		c-0.3,0-0.5,0.2-0.6,0.4c0.1,0.1,0.3,0.1,0.5,0.1c0.1,0.2,0,0.5-0.1,0.7c-0.1,0.1-0.2,0.2-0.3,0.3c-0.1,0.1-0.1,0.3-0.2,0.4
		c-0.3,0.2-0.3-0.3-0.6-0.1c-0.3,0.1,0,0.5,0,0.7c-0.1,0.5-0.9,0.6-1.3,0.9c-0.2,0.1-0.3,0.3-0.6,0.4c-0.3,0.1-0.7-0.1-1.1,0
		c-0.1,0-0.7,0.4-0.6,0c0-0.1,0.6-0.2,0.8-0.3c0.4-0.3,0.9-0.6,1.2-0.9c0.3-0.2,0.4-0.3,0.6-0.4c0.5-0.2,0.2-0.3,0.1-0.6
		c-0.1-0.2,0.1-0.5,0.2-0.7c0.1-0.4,0.1-0.4-0.1-0.8c-0.1-0.1-0.2-0.3-0.2-0.5c0-0.2,0.1-0.4,0.1-0.6c0-0.2-0.3-0.8-0.5-0.9
		c-0.1-0.1-0.4,0-0.4-0.3c0-0.2,0.4-0.2,0.2-0.5c-0.2-0.3-0.4,0.1-0.6,0.1c-0.3,0-0.2-0.2-0.2-0.5c-0.3-0.1-0.7,0.3-0.9,0
		c-0.3,0-0.4,0.1-0.7,0c-0.2,0-0.5-0.1-0.7,0.1c-0.2,0.2-0.1,0.5-0.1,0.8C75,9,75,9,75,9.2c0,0.1,0.1,0.2,0.2,0.4c0,0.2,0,0.2,0,0.4
		c0,0.1-0.2,0.3-0.2,0.3c0,0.2,0,0.1,0.1,0.3c0.1,0.2,0.1,0.1,0.2,0.3c0.1,0.3-0.1,0.6-0.1,0.9c0,0.4,0.3,0.5,0.3,0.8
		c0,0.6-0.2,1.1-0.1,1.7c0,0.1,0.1,0.3,0.1,0.3c0,0.1-0.2,0.2-0.2,0.3c0,0.2,0.1,0.6,0.1,0.8c0.1,0.3,0.2,0.5,0.2,0.8
		c0,0.2-0.2,0.3-0.2,0.5c0,0.2,0.2,0.3,0.3,0.4c0.2,0.4,0.1,1.2,0,1.6c-0.1,0.3-0.2,0.7-0.1,1c0.1,0.3,0.6,0.4,0.4,0.7
		c0.2-0.1,0.5-0.1,0.7,0c0.1,0,0.2,0.1,0.3,0.1c0.3,0,0.5-0.2,0.7-0.2c0.5,0.1,0.1,0.3-0.2,0.4c-0.4,0.1-0.6,0.2-1,0.1
		c-0.6-0.1-1.1,0-1.8,0c-0.4,0-0.6,0-0.9,0.1c-0.4,0.1-0.5,0-0.9,0c-0.3,0-0.9,0.5-1.2,0.2c-0.4-0.4,0.6-0.6,0.8-0.6
		c0.3,0,0.3,0.2,0.5-0.1c0.1-0.1,0-0.2,0.1-0.3c0-0.1,0.1-0.1,0.2-0.2c0.2-0.4-0.1-0.8,0.1-1.2c0.2-0.1,0.4-0.2,0.4-0.4
		c-0.3-0.1-0.4-0.1-0.5-0.4c-0.1-0.2,0.1-0.6,0-0.9c-0.1-0.3-0.2-0.4-0.2-0.7c0-0.3,0.2-0.4,0.1-0.8c-0.1-0.1-0.2-0.2,0-0.3
		c0.1,0,0.3,0.1,0.4,0.1c0.3-0.1,0.3-0.5,0.1-0.7c-0.2-0.2-0.5,0-0.6-0.4c-0.1-0.3,0-0.6,0.1-0.8c0.2-0.4,0.1-0.3-0.1-0.7
		c-0.2-0.2-0.1-0.6-0.1-0.9c0.1-0.3,0.3-0.6,0.1-0.9c-0.1-0.3-0.2-0.3-0.2-0.7c0-0.2,0-0.4,0.1-0.6c0.1,0,0.2-0.1,0.3-0.2
		c-0.3-0.2-0.6-0.2-0.5-0.7c0-0.2,0.2-0.4,0.1-0.6C73,8.6,72.7,8.4,72.7,8.3z"/>
	<path class="st20" d="M72.7,8.3c-0.2-0.2-0.3-0.5-0.7-0.6c-0.2,0-0.4,0-0.6,0c-0.2,0-0.3-0.1-0.5-0.1c0.1-0.2,0.5-0.2,0.8-0.2
		c0.1,0,0.2,0,0.3,0c0.2,0,0.2,0,0.4-0.1c0.3-0.1,0.5-0.2,0.8-0.2c0.4,0,0.3,0.2,0.6,0.4c0.3,0.2,0.4-0.1,0.6-0.2
		c0.2-0.2,0.4-0.3,0.7-0.2c0.3,0,0.4,0.1,0.7,0.1c0.3,0,0.6-0.1,0.8-0.1C77,7,77.2,7,77.5,7.1c0.1,0,0.2,0.2,0.4,0.2
		c0.2,0,0.3-0.1,0.5,0c0.3,0,0.5,0.2,0.7,0.3c0.3,0.1,0.5,0.1,0.8,0.3c0.3,0.2,0.3,0.4,0.4,0.7c0.2,0.2,0.4,0.4,0.5,0.6
		c0.1,0.3,0.2,0.5,0.2,0.8c0,0.1,0.1,0.3,0,0.4c0,0.1-0.2,0.2-0.2,0.3c0,0,0,0,0,0.1c0.1,0.1,0.3,0.3,0.2,0.5
		c-0.3,0-0.5,0.2-0.6,0.4c0.1,0.1,0.3,0.1,0.5,0.1c0.1,0.2,0,0.5-0.1,0.7c-0.1,0.1-0.2,0.2-0.3,0.3c-0.1,0.1-0.1,0.3-0.2,0.4
		c-0.3,0.2-0.3-0.3-0.6-0.1c-0.3,0.1,0,0.5,0,0.7c-0.1,0.5-0.9,0.6-1.3,0.9c-0.2,0.1-0.3,0.3-0.6,0.4c-0.3,0.1-0.7-0.1-1.1,0
		c-0.1,0-0.7,0.4-0.6,0c0-0.1,0.6-0.2,0.8-0.3c0.4-0.3,0.9-0.6,1.2-0.9c0.3-0.2,0.4-0.3,0.6-0.4c0.5-0.2,0.2-0.3,0.1-0.6
		c-0.1-0.2,0.1-0.5,0.2-0.7c0.1-0.4,0.1-0.4-0.1-0.8c-0.1-0.1-0.2-0.3-0.2-0.5c0-0.2,0.1-0.4,0.1-0.6c0-0.2-0.3-0.8-0.5-0.9
		c-0.1-0.1-0.4,0-0.4-0.3c0-0.2,0.4-0.2,0.2-0.5c-0.2-0.3-0.4,0.1-0.6,0.1c-0.3,0-0.2-0.2-0.2-0.5c-0.3-0.1-0.7,0.3-0.9,0
		c-0.3,0-0.4,0.1-0.7,0c-0.2,0-0.5-0.1-0.7,0.1c-0.2,0.2-0.1,0.5-0.1,0.8C75,9,75,9,75,9.2c0,0.1,0.1,0.2,0.2,0.4c0,0.2,0,0.2,0,0.4
		c0,0.1-0.2,0.3-0.2,0.3c0,0.2,0,0.1,0.1,0.3c0.1,0.2,0.1,0.1,0.2,0.3c0.1,0.3-0.1,0.6-0.1,0.9c0,0.4,0.3,0.5,0.3,0.8
		c0,0.6-0.2,1.1-0.1,1.7c0,0.1,0.1,0.3,0.1,0.3c0,0.1-0.2,0.2-0.2,0.3c0,0.2,0.1,0.6,0.1,0.8c0.1,0.3,0.2,0.5,0.2,0.8
		c0,0.2-0.2,0.3-0.2,0.5c0,0.2,0.2,0.3,0.3,0.4c0.2,0.4,0.1,1.2,0,1.6c-0.1,0.3-0.2,0.7-0.1,1c0.1,0.3,0.6,0.4,0.4,0.7
		c0.2-0.1,0.5-0.1,0.7,0c0.1,0,0.2,0.1,0.3,0.1c0.3,0,0.5-0.2,0.7-0.2c0.5,0.1,0.1,0.3-0.2,0.4c-0.4,0.1-0.6,0.2-1,0.1
		c-0.6-0.1-1.1,0-1.8,0c-0.4,0-0.6,0-0.9,0.1c-0.4,0.1-0.5,0-0.9,0c-0.3,0-0.9,0.5-1.2,0.2c-0.4-0.4,0.6-0.6,0.8-0.6
		c0.3,0,0.3,0.2,0.5-0.1c0.1-0.1,0-0.2,0.1-0.3c0-0.1,0.1-0.1,0.2-0.2c0.2-0.4-0.1-0.8,0.1-1.2c0.2-0.1,0.4-0.2,0.4-0.4
		c-0.3-0.1-0.4-0.1-0.5-0.4c-0.1-0.2,0.1-0.6,0-0.9c-0.1-0.3-0.2-0.4-0.2-0.7c0-0.3,0.2-0.4,0.1-0.8c-0.1-0.1-0.2-0.2,0-0.3
		c0.1,0,0.3,0.1,0.4,0.1c0.3-0.1,0.3-0.5,0.1-0.7c-0.2-0.2-0.5,0-0.6-0.4c-0.1-0.3,0-0.6,0.1-0.8c0.2-0.4,0.1-0.3-0.1-0.7
		c-0.2-0.2-0.1-0.6-0.1-0.9c0.1-0.3,0.3-0.6,0.1-0.9c-0.1-0.3-0.2-0.3-0.2-0.7c0-0.2,0-0.4,0.1-0.6c0.1,0,0.2-0.1,0.3-0.2
		c-0.3-0.2-0.6-0.2-0.5-0.7c0-0.2,0.2-0.4,0.1-0.6C73,8.6,72.7,8.4,72.7,8.3z"/>
	<path class="st20" d="M62.1,9.5C62.3,9.4,63.2,9,63.4,9c0.3,0,0.4,0.2,0.7,0.2c0.3,0.1,0.4,0.1,0.7,0.2c0.2,0.1,0.5,0.1,0.6,0.2
		c0.3,0.2-0.1,0.3,0,0.6c0,0.4,0.5,0.7,0.5,1.1c0.1,0,0.2-0.1,0.3-0.1c0.1-0.3-0.1-0.7-0.1-1c0-0.4,0.1-0.8,0-1.2
		c-0.1-0.2-0.2-0.7-0.4-0.8c-0.4-0.3-0.6,0.3-1,0.2c-0.3,0-0.6-0.3-0.9-0.3c-0.4,0-0.6,0.1-1,0.2c-0.3,0.1-0.7,0-1,0.1
		c-0.2,0.1-0.4,0.4-0.7,0.6c-0.3,0.1-0.7,0.2-0.9,0.5c-0.2,0.2-0.1,0.3-0.2,0.4c-0.1,0.1-0.3,0.2-0.3,0.3c-0.1,0.2,0,0.2,0,0.4
		c0,0.2-0.1,0.3-0.1,0.5c-0.1,0.3-0.1,0.7-0.1,1.1c0.1,0.2,0.1,0.6,0.2,0.9c0.1,0.3,0.2,0.6,0.4,0.9c0.2,0.4,0.2,0.5,0.6,0.5
		c0.2,0,0.9-0.8,0.8-0.5c-0.2,0.4-0.4,0.8-0.3,0.9c0.1,0.5,0.2,0.4,0.6,0.6c0.3,0.2,0.6,0.4,0.9,0.6c0.4,0.2,0.6,0.4,1,0.6
		c0.2,0.1,0.6,0.4,0.8,0.4c0.3,0.1,0.9-0.6,1.2-0.1c-0.3,0.4-0.8,0.4-0.2,1c0.4,0.4,0.6,0.7,0.8,1.2c0.1,0.4,0.1,0.8-0.1,1.2
		c-0.1,0.3-0.6,0.7-0.7,1c0.6,0.2-0.3,0.8-0.6,0.8c0.1-0.6-0.9-0.4-1.3-0.4c-0.6,0-1,0.1-1.6-0.3c-0.5-0.3-0.4-0.8-0.7-1.2
		c-0.1-0.2-0.3-0.3-0.4-0.5c-0.1-0.2,0-0.5-0.4-0.5c0,0.3,0.1,0.5,0.1,0.7c0,0.2-0.1,0.6-0.1,0.7c0.1,0.3,0.6,0.2,0.6,0.4
		c0,0.1-0.4,0.4-0.4,0.5c0.1,0,0,0.1,0,0.2c0,0,0,0.1,0,0.1c0,0,0,0,0.1,0c0,0.7,0.3,1,1,0.9c0.3,0,0.4-0.3,0.7-0.2
		c0.1,0,0.2,0.2,0.3,0.2c0.2,0,0.3,0,0.5-0.1c0.2-0.1,0.3-0.2,0.6-0.2c0.2,0,0.3,0,0.5,0c0.3,0,0.5-0.1,0.8-0.2
		c0.6-0.2,1-0.7,1.7-0.9c0,0.2,0.7-1.2,0.7-1.3c0.1-0.2,0.6-1,0.5-1.5c-0.1-0.4-0.1-1.1-0.3-1.5c-0.1-0.2-0.3-0.6-0.5-0.7
		c-0.2-0.1-0.6,0-0.8,0c-0.1-0.3,0.1-0.7-0.2-1c-0.2-0.2-0.5-0.2-0.7-0.5c-0.4-0.5-0.8-0.7-1.4-1c-0.3-0.2-0.6-0.1-1-0.4
		c-0.3-0.2-0.5-0.5-0.8-0.7c-0.2-0.1-0.4-0.1-0.5-0.2c-0.2-0.1-0.2-0.3-0.3-0.4c-0.3-0.3-0.6-0.2-0.6-0.7c0-0.1,0.2-0.4,0.2-0.5
		c0.1-0.2,0.1-0.4,0.2-0.6c0.1-0.2,0.3-0.3,0.4-0.4C61.8,9.9,61.8,9.7,62.1,9.5z"/>
	<path class="st20" d="M62.1,9.5C62.3,9.4,63.2,9,63.4,9c0.3,0,0.4,0.2,0.7,0.2c0.3,0.1,0.4,0.1,0.7,0.2c0.2,0.1,0.5,0.1,0.6,0.2
		c0.3,0.2-0.1,0.3,0,0.6c0,0.4,0.5,0.7,0.5,1.1c0.1,0,0.2-0.1,0.3-0.1c0.1-0.3-0.1-0.7-0.1-1c0-0.4,0.1-0.8,0-1.2
		c-0.1-0.2-0.2-0.7-0.4-0.8c-0.4-0.3-0.6,0.3-1,0.2c-0.3,0-0.6-0.3-0.9-0.3c-0.4,0-0.6,0.1-1,0.2c-0.3,0.1-0.7,0-1,0.1
		c-0.2,0.1-0.4,0.4-0.7,0.6c-0.3,0.1-0.7,0.2-0.9,0.5c-0.2,0.2-0.1,0.3-0.2,0.4c-0.1,0.1-0.3,0.2-0.3,0.3c-0.1,0.2,0,0.2,0,0.4
		c0,0.2-0.1,0.3-0.1,0.5c-0.1,0.3-0.1,0.7-0.1,1.1c0.1,0.2,0.1,0.6,0.2,0.9c0.1,0.3,0.2,0.6,0.4,0.9c0.2,0.4,0.2,0.5,0.6,0.5
		c0.2,0,0.9-0.8,0.8-0.5c-0.2,0.4-0.4,0.8-0.3,0.9c0.1,0.5,0.2,0.4,0.6,0.6c0.3,0.2,0.6,0.4,0.9,0.6c0.4,0.2,0.6,0.4,1,0.6
		c0.2,0.1,0.6,0.4,0.8,0.4c0.3,0.1,0.9-0.6,1.2-0.1c-0.3,0.4-0.8,0.4-0.2,1c0.4,0.4,0.6,0.7,0.8,1.2c0.1,0.4,0.1,0.8-0.1,1.2
		c-0.1,0.3-0.6,0.7-0.7,1c0.6,0.2-0.3,0.8-0.6,0.8c0.1-0.6-0.9-0.4-1.3-0.4c-0.6,0-1,0.1-1.6-0.3c-0.5-0.3-0.4-0.8-0.7-1.2
		c-0.1-0.2-0.3-0.3-0.4-0.5c-0.1-0.2,0-0.5-0.4-0.5c0,0.3,0.1,0.5,0.1,0.7c0,0.2-0.1,0.6-0.1,0.7c0.1,0.3,0.6,0.2,0.6,0.4
		c0,0.1-0.4,0.4-0.4,0.5c0.1,0,0,0.1,0,0.2c0,0,0,0.1,0,0.1c0,0,0,0,0.1,0c0,0.7,0.3,1,1,0.9c0.3,0,0.4-0.3,0.7-0.2
		c0.1,0,0.2,0.2,0.3,0.2c0.2,0,0.3,0,0.5-0.1c0.2-0.1,0.3-0.2,0.6-0.2c0.2,0,0.3,0,0.5,0c0.3,0,0.5-0.1,0.8-0.2
		c0.6-0.2,1-0.7,1.7-0.9c0,0.2,0.7-1.2,0.7-1.3c0.1-0.2,0.6-1,0.5-1.5c-0.1-0.4-0.1-1.1-0.3-1.5c-0.1-0.2-0.3-0.6-0.5-0.7
		c-0.2-0.1-0.6,0-0.8,0c-0.1-0.3,0.1-0.7-0.2-1c-0.2-0.2-0.5-0.2-0.7-0.5c-0.4-0.5-0.8-0.7-1.4-1c-0.3-0.2-0.6-0.1-1-0.4
		c-0.3-0.2-0.5-0.5-0.8-0.7c-0.2-0.1-0.4-0.1-0.5-0.2c-0.2-0.1-0.2-0.3-0.3-0.4c-0.3-0.3-0.6-0.2-0.6-0.7c0-0.1,0.2-0.4,0.2-0.5
		c0.1-0.2,0.1-0.4,0.2-0.6c0.1-0.2,0.3-0.3,0.4-0.4C61.8,9.9,61.8,9.7,62.1,9.5z"/>
	<g>
		<path class="st20" d="M112.2,26.2c0.2-0.2,0.3-0.5,0.4-0.7c0.1-0.2,0.2-0.4,0.4-0.5c0.1,0,0.7,0,0.7,0c-0.1-0.1-0.2-0.4-0.2-0.6
			c0-0.2,0.2-0.4,0.3-0.6c0.1-0.1,0.2-0.2,0.3-0.3c0.2-0.2,0.1-0.1,0.2-0.4c0.1-0.2,0.1-0.3,0.2-0.5c0,0,0.1-0.1,0.1-0.1
			c0-0.3-0.1-0.6,0.2-0.8c0.2-0.1,0.4-0.1,0.6-0.2c0-0.2-0.2-0.1-0.3-0.3c-0.1-0.1,0-0.4,0.1-0.5c0.1-0.3,0-0.4-0.1-0.7
			c-0.1-0.3-0.2-0.6,0-0.8c0.1-0.2,0.4-0.5,0.4-0.7c-0.2,0-0.2-0.4-0.3-0.6c-0.1-0.2-0.1-0.4-0.1-0.7c0.1-0.3,0.1-0.4,0.1-0.7
			c0-0.5,0-1-0.1-1.5c-0.1-0.4,0.2-0.9-0.1-1.3c-0.1-0.2-0.3-0.4-0.4-0.5c-0.1-0.2-0.3-0.4-0.3-0.6c-0.5-0.2-0.2-0.5,0.1-0.5
			c0.2,0,0.2,0.2,0.3,0.3c0.1,0.1,0.3,0.1,0.4,0.2c0.1,0.1,0.3,0.2,0.4,0.3c0.1,0.1,0.1,0.2,0.1,0.2c0.1,0.1,0.1,0,0.2,0.1
			c0.2,0.1,0.2,0.1,0.2,0.4c0,0.2-0.1,0.4,0,0.5c0.2-0.1,0.3-0.2,0.4-0.4c0.2,0,0.5,0.3,0.7,0.4c0.3,0.1,0.9,0.1,0.9,0.5
			c0,0.4-0.5,0.1-0.7,0.2c-0.2,0.2-0.2,0.5-0.4,0.7c-0.2,0-0.7,0.1-0.4,0.3c0.1,0.1,0.3,0,0.4,0.1c0.1,0.1,0.1,0.2,0.1,0.3
			c0,0.2,0,0.6,0,0.8c-0.1,0.3-0.2,0.3-0.4,0.5c0.2,0.2,0.1,0.2,0.2,0.4c0,0.1,0.2,0.3,0.2,0.5c0,0.4-0.5,0.6-0.4,1
			c0.3,0.1,0.4,0.4,0.4,0.7c-0.1,0.3-0.5,0.5-0.5,0.7c0.4,0.2,0.3,0.2,0.2,0.5c-0.1,0.2-0.1,0.4-0.1,0.7c0.2-0.1,0.2-0.2,0.4-0.2
			c0.2,0,0.3,0.1,0.5,0c0.2-0.1,0.2-0.3,0.4-0.5c0.2-0.1,0.4-0.3,0.6-0.5c0.4-0.3,0.6-0.6,1-0.5c0.3,0.1,0.4,0.2,0.5-0.2
			c0.1-0.3,0.1-0.3,0.4-0.5c0.4-0.1,1-0.4,1.1-0.8c0.5,0,0.7-0.3,0.9-0.7c0.1-0.3,0.3-0.4,0.2-0.7c-0.1-0.2-0.2-0.3-0.1-0.5
			c0.3,0.2,0.5,0.3,0.8,0.6c0.2,0.2,0.2,0.3,0.4,0.4c0,0,0.1,0,0.2,0c0.1,0,0.1,0.1,0.2,0.1c0.2,0.2,0.3,0.2,0.5,0.2
			c0.2,0,0.3,0.1,0.4,0.2c0.3,0.2,0.5,0.4,0.8,0.6c0.1-0.1,0.1-0.1,0.2-0.2c0.3,0,0.3,0.7-0.1,0.6c-0.3-0.1-0.5-0.5-0.9-0.5
			c-0.3,0-0.8,0.1-1.1,0.2c-0.2,0.1-0.3,0.2-0.5,0.3c-0.2,0-0.3-0.1-0.5-0.1c-0.2,0-0.4,0.6-0.5,0.6c-0.3-0.2-0.5-0.5-0.9-0.4
			c0,0.2,0.5,0.2,0.4,0.6c-0.3,0.1-0.7,0.1-1,0.3c-0.3,0.2-0.5,0.5-0.9,0.7c-0.3,0.1-0.4-0.1-0.6,0c-0.2,0.1-0.3,0.3-0.5,0.5
			c-0.3,0.2-0.7,0.5-1,0.7c-0.2,0.1-0.3,0.3-0.5,0.5c-0.2,0.1-0.4,0.1-0.6,0.2c-0.5,0.3-0.1,0.3-0.1,0.6c0,0.1-0.3,0.4-0.4,0.6
			c-0.3,0.4-0.5,0.8-0.8,1.2c-0.3,0.4-0.5,0.9-0.7,1.3c-0.1,0.2-0.2,0.4-0.2,0.6c0,0.2,0.2,0.3,0.3,0.5c0.1,0.2,0.2,0.5,0.4,0.7
			c0,0.1,0.2,0.2,0.1,0.3c-0.1,0.1-0.3,0-0.3,0c-0.2-0.1-0.3-0.3-0.5-0.5c-0.2-0.1-0.4-0.3-0.6-0.3c-0.4-0.1-0.4,0-0.5-0.4
			c-0.1-0.3-0.3-0.4-0.6-0.4c-0.5,0-0.8-0.3-1.3-0.5c-0.2-0.1-0.3-0.1-0.5-0.4c-0.1-0.1-0.2-0.5-0.2-0.6c0.4-0.1,0.5,0.5,0.9,0.5
			C111.8,26.3,112,26.3,112.2,26.2z"/>
		<path class="st20" d="M112.2,26.2c0.2-0.2,0.3-0.5,0.4-0.7c0.1-0.2,0.2-0.4,0.4-0.5c0.1,0,0.7,0,0.7,0c-0.1-0.1-0.2-0.4-0.2-0.6
			c0-0.2,0.2-0.4,0.3-0.6c0.1-0.1,0.2-0.2,0.3-0.3c0.2-0.2,0.1-0.1,0.2-0.4c0.1-0.2,0.1-0.3,0.2-0.5c0,0,0.1-0.1,0.1-0.1
			c0-0.3-0.1-0.6,0.2-0.8c0.2-0.1,0.4-0.1,0.6-0.2c0-0.2-0.2-0.1-0.3-0.3c-0.1-0.1,0-0.4,0.1-0.5c0.1-0.3,0-0.4-0.1-0.7
			c-0.1-0.3-0.2-0.6,0-0.8c0.1-0.2,0.4-0.5,0.4-0.7c-0.2,0-0.2-0.4-0.3-0.6c-0.1-0.2-0.1-0.4-0.1-0.7c0.1-0.3,0.1-0.4,0.1-0.7
			c0-0.5,0-1-0.1-1.5c-0.1-0.4,0.2-0.9-0.1-1.3c-0.1-0.2-0.3-0.4-0.4-0.5c-0.1-0.2-0.3-0.4-0.3-0.6c-0.5-0.2-0.2-0.5,0.1-0.5
			c0.2,0,0.2,0.2,0.3,0.3c0.1,0.1,0.3,0.1,0.4,0.2c0.1,0.1,0.3,0.2,0.4,0.3c0.1,0.1,0.1,0.2,0.1,0.2c0.1,0.1,0.1,0,0.2,0.1
			c0.2,0.1,0.2,0.1,0.2,0.4c0,0.2-0.1,0.4,0,0.5c0.2-0.1,0.3-0.2,0.4-0.4c0.2,0,0.5,0.3,0.7,0.4c0.3,0.1,0.9,0.1,0.9,0.5
			c0,0.4-0.5,0.1-0.7,0.2c-0.2,0.2-0.2,0.5-0.4,0.7c-0.2,0-0.7,0.1-0.4,0.3c0.1,0.1,0.3,0,0.4,0.1c0.1,0.1,0.1,0.2,0.1,0.3
			c0,0.2,0,0.6,0,0.8c-0.1,0.3-0.2,0.3-0.4,0.5c0.2,0.2,0.1,0.2,0.2,0.4c0,0.1,0.2,0.3,0.2,0.5c0,0.4-0.5,0.6-0.4,1
			c0.3,0.1,0.4,0.4,0.4,0.7c-0.1,0.3-0.5,0.5-0.5,0.7c0.4,0.2,0.3,0.2,0.2,0.5c-0.1,0.2-0.1,0.4-0.1,0.7c0.2-0.1,0.2-0.2,0.4-0.2
			c0.2,0,0.3,0.1,0.5,0c0.2-0.1,0.2-0.3,0.4-0.5c0.2-0.1,0.4-0.3,0.6-0.5c0.4-0.3,0.6-0.6,1-0.5c0.3,0.1,0.4,0.2,0.5-0.2
			c0.1-0.3,0.1-0.3,0.4-0.5c0.4-0.1,1-0.4,1.1-0.8c0.5,0,0.7-0.3,0.9-0.7c0.1-0.3,0.3-0.4,0.2-0.7c-0.1-0.2-0.2-0.3-0.1-0.5
			c0.3,0.2,0.5,0.3,0.8,0.6c0.2,0.2,0.2,0.3,0.4,0.4c0,0,0.1,0,0.2,0c0.1,0,0.1,0.1,0.2,0.1c0.2,0.2,0.3,0.2,0.5,0.2
			c0.2,0,0.3,0.1,0.4,0.2c0.3,0.2,0.5,0.4,0.8,0.6c0.1-0.1,0.1-0.1,0.2-0.2c0.3,0,0.3,0.7-0.1,0.6c-0.3-0.1-0.5-0.5-0.9-0.5
			c-0.3,0-0.8,0.1-1.1,0.2c-0.2,0.1-0.3,0.2-0.5,0.3c-0.2,0-0.3-0.1-0.5-0.1c-0.2,0-0.4,0.6-0.5,0.6c-0.3-0.2-0.5-0.5-0.9-0.4
			c0,0.2,0.5,0.2,0.4,0.6c-0.3,0.1-0.7,0.1-1,0.3c-0.3,0.2-0.5,0.5-0.9,0.7c-0.3,0.1-0.4-0.1-0.6,0c-0.2,0.1-0.3,0.3-0.5,0.5
			c-0.3,0.2-0.7,0.5-1,0.7c-0.2,0.1-0.3,0.3-0.5,0.5c-0.2,0.1-0.4,0.1-0.6,0.2c-0.5,0.3-0.1,0.3-0.1,0.6c0,0.1-0.3,0.4-0.4,0.6
			c-0.3,0.4-0.5,0.8-0.8,1.2c-0.3,0.4-0.5,0.9-0.7,1.3c-0.1,0.2-0.2,0.4-0.2,0.6c0,0.2,0.2,0.3,0.3,0.5c0.1,0.2,0.2,0.5,0.4,0.7
			c0,0.1,0.2,0.2,0.1,0.3c-0.1,0.1-0.3,0-0.3,0c-0.2-0.1-0.3-0.3-0.5-0.5c-0.2-0.1-0.4-0.3-0.6-0.3c-0.4-0.1-0.4,0-0.5-0.4
			c-0.1-0.3-0.3-0.4-0.6-0.4c-0.5,0-0.8-0.3-1.3-0.5c-0.2-0.1-0.3-0.1-0.5-0.4c-0.1-0.1-0.2-0.5-0.2-0.6c0.4-0.1,0.5,0.5,0.9,0.5
			C111.8,26.3,112,26.3,112.2,26.2z"/>
	</g>
	<path class="st20" d="M43.8,15.8c-0.2,0.2-0.3,0.5-0.5,0.7c-0.2,0.2-0.5,0.3-0.3,0.7c0.1,0.3,0.3,0.3,0.3,0.7c0,0.2,0,0.6,0,0.8
		c0,0.2-0.2,0.4-0.2,0.7c-0.1,0.5,0.1,0.3,0.4,0.6c0.2,0.2,0.2,0.7,0.1,1c0.4,0.1,0.3,1.3,0.6,1.7c0.1,0.2,0.5,0.3,0.6,0.5
		c0.1,0.2-0.1,0.6-0.2,0.8c-0.2,0.2-0.4,0.3-0.6,0.6c-0.2,0.3-0.1,0.6,0.3,0.4c0.4-0.2,0.9-0.8,1.4-0.6c0.2,0.1,0.2,0.5,0.4,0.6
		c0.2,0.1,0.4,0,0.6,0.1c0.1,0,0.2,0.3,0.3,0.4c0.3,0.3,0.6,0.4,1,0.4c0.2,0,0.4,0,0.7,0c0.2,0,0.2,0.2,0.4,0.2
		c0.3,0,0.6-0.2,0.9-0.1c0.3,0.1,0.4,0.6,0.7,0.5c0.2-0.1,0.3-0.6,0.5-0.8c0.3-0.2,0.5-0.3,0.8-0.4c0.5-0.3,0.9-0.6,1.3-0.9
		c0.4-0.2,0.3-0.5,0.4-0.8c0.1-0.3,0.3-0.7,0.3-1c0.1-0.6-0.4-1.6,0.1-2.1c0.2-0.2,1.1-0.2,0.6-0.5c-0.3-0.2-0.7,0-1-0.1
		c0-0.2,0.1-0.4,0-0.6c-0.1-0.2-0.2-0.4-0.3-0.6c-0.1-0.2-0.1-0.4,0-0.5c0.1-0.2,0.3-0.3,0.2-0.5c-1,0-1-0.9-1.5-1.6
		c-0.3-0.4-1-1-1.4-1.3c-0.3-0.2-0.6-0.1-0.8-0.5c-0.2-0.3-0.1-0.7-0.6-0.5c-0.1,0.1-0.2,0.3-0.4,0.3c-0.2,0-0.2-0.1-0.3-0.2
		c-0.3-0.1-0.6-0.2-0.9-0.2c-0.6,0-1.3,0.3-1.8,0.5c-0.6,0.2-1.1,0.5-1.6,1C44.3,15.5,44.1,15.7,43.8,15.8z M42.9,15.2
		c0-0.1,0.5-0.6,0.6-0.6c0.2-0.1,0.4,0.2,0.6,0.1c0.4-0.1,0.2-0.5,0.3-0.8c0.1-0.3,0.6-0.4,0.8-0.5c0.3-0.1,0.6-0.4,0.8-0.5
		c0.1,0,0.4-0.1,0.5-0.1c0.2,0.1,0.1,0.1,0.3,0.3c0.9,0.8,0.9-0.6,1.5-0.6c0.2,0,0.4,0.2,0.6,0.1c0.3-0.1,0.4-0.5,0.7-0.2
		c0.2,0.2-0.1,0.4,0.3,0.5c0.3,0.1,0.5-0.2,0.7-0.4c0.2,0,0.3,0,0.5,0c0.1,0.2,0.3,0.2,0.5,0.3c0.1,0,0.2,0.2,0.3,0.2
		c0.1,0.1,0.2,0.1,0.4,0.2c0.5,0.2,1.1,0.4,1.1,0.9c0,0.1-0.2,0.1-0.1,0.3c0.1,0.1,0.3,0,0.4,0c0.2,0,0.5,0.2,0.6,0.3
		c0.5,0.3,0.6,1.1,0.9,1.5c-0.2,0.1-0.5,0.2-0.6,0.4c0.3,0.2,0.6,0,0.9,0.2c0.2,0.3,0.3,0.7,0.2,1c-0.2,0.4-0.4,0.4-0.1,0.9
		c0.2,0.3,0.4,0.4,0.5,0.7c0.1,0.3,0.1,0.6,0.1,0.8c0,0.4,0.1,0.8-0.1,1.2c-0.1,0.1-0.2,0.2-0.3,0.3c-0.1,0.2,0,0.3,0,0.5
		c0,0.2-0.1,0.3-0.1,0.4c0,0.1,0,0.3-0.1,0.4c-0.1,0.2-0.3,0.4-0.5,0.6c-0.2,0.3-0.2,0.4-0.4,0.7c-0.1,0.2-0.4,0.4-0.5,0.6
		c-0.3,0.2-0.5,0.5-0.8,0.6c-0.3,0.2-0.4,0.4-0.6,0.6c-0.3,0.3-0.4,0.1-0.7,0.1c-0.4,0-0.5,0.3-0.8,0.5c-0.3,0.3-0.6,0.3-0.9,0.4
		c-0.3,0.1-0.7,0.3-1,0.2c-0.3-0.1-0.6,0-0.7,0c-0.2,0-0.4,0-0.5-0.1c-0.1-0.2,0-0.4-0.1-0.4c-0.1,0-0.3,0.4-0.4,0.4
		c-0.5,0-0.5,0.2-0.8,0.2c-0.4,0.1-0.4,0-0.8-0.1c-0.2-0.1-0.3-0.2-0.5-0.3c-0.2-0.1-0.4-0.2-0.6-0.3c-0.6-0.2-0.9-0.5-1.3-0.9
		c-0.3-0.4-1.3-1.3-1.4-1.5c-0.3-0.5-1-1.1-0.6-1.6c0.1,0,0.3-0.1,0.4-0.2c0-0.2-0.2-0.2-0.3-0.2c-0.4-0.1-0.5-0.2-0.6-0.5
		c-0.1-0.3-0.2-0.6-0.2-0.9c0-0.3,0.3-0.4,0.3-0.6c0.1-0.4-0.4-0.4-0.5-0.6c-0.2-0.3,0.1-0.6,0.2-0.9c0-0.1,0.1-0.3,0.1-0.4
		c0.1-0.1,0.2-0.1,0.3-0.2c0.3-0.3,0.1-0.4,0-0.7c-0.1-0.5,0.3-0.8,0.5-1.2c0.1-0.2,0.2-0.5,0.4-0.7C42.6,15.5,42.8,15.4,42.9,15.2z
		"/>
	<path class="st20" d="M43.8,15.8c-0.2,0.2-0.3,0.5-0.5,0.7c-0.2,0.2-0.5,0.3-0.3,0.7c0.1,0.3,0.3,0.3,0.3,0.7c0,0.2,0,0.6,0,0.8
		c0,0.2-0.2,0.4-0.2,0.7c-0.1,0.5,0.1,0.3,0.4,0.6c0.2,0.2,0.2,0.7,0.1,1c0.4,0.1,0.3,1.3,0.6,1.7c0.1,0.2,0.5,0.3,0.6,0.5
		c0.1,0.2-0.1,0.6-0.2,0.8c-0.2,0.2-0.4,0.3-0.6,0.6c-0.2,0.3-0.1,0.6,0.3,0.4c0.4-0.2,0.9-0.8,1.4-0.6c0.2,0.1,0.2,0.5,0.4,0.6
		c0.2,0.1,0.4,0,0.6,0.1c0.1,0,0.2,0.3,0.3,0.4c0.3,0.3,0.6,0.4,1,0.4c0.2,0,0.4,0,0.7,0c0.2,0,0.2,0.2,0.4,0.2
		c0.3,0,0.6-0.2,0.9-0.1c0.3,0.1,0.4,0.6,0.7,0.5c0.2-0.1,0.3-0.6,0.5-0.8c0.3-0.2,0.5-0.3,0.8-0.4c0.5-0.3,0.9-0.6,1.3-0.9
		c0.4-0.2,0.3-0.5,0.4-0.8c0.1-0.3,0.3-0.7,0.3-1c0.1-0.6-0.4-1.6,0.1-2.1c0.2-0.2,1.1-0.2,0.6-0.5c-0.3-0.2-0.7,0-1-0.1
		c0-0.2,0.1-0.4,0-0.6c-0.1-0.2-0.2-0.4-0.3-0.6c-0.1-0.2-0.1-0.4,0-0.5c0.1-0.2,0.3-0.3,0.2-0.5c-1,0-1-0.9-1.5-1.6
		c-0.3-0.4-1-1-1.4-1.3c-0.3-0.2-0.6-0.1-0.8-0.5c-0.2-0.3-0.1-0.7-0.6-0.5c-0.1,0.1-0.2,0.3-0.4,0.3c-0.2,0-0.2-0.1-0.3-0.2
		c-0.3-0.1-0.6-0.2-0.9-0.2c-0.6,0-1.3,0.3-1.8,0.5c-0.6,0.2-1.1,0.5-1.6,1C44.3,15.5,44.1,15.7,43.8,15.8z M42.9,15.2
		c0-0.1,0.5-0.6,0.6-0.6c0.2-0.1,0.4,0.2,0.6,0.1c0.4-0.1,0.2-0.5,0.3-0.8c0.1-0.3,0.6-0.4,0.8-0.5c0.3-0.1,0.6-0.4,0.8-0.5
		c0.1,0,0.4-0.1,0.5-0.1c0.2,0.1,0.1,0.1,0.3,0.3c0.9,0.8,0.9-0.6,1.5-0.6c0.2,0,0.4,0.2,0.6,0.1c0.3-0.1,0.4-0.5,0.7-0.2
		c0.2,0.2-0.1,0.4,0.3,0.5c0.3,0.1,0.5-0.2,0.7-0.4c0.2,0,0.3,0,0.5,0c0.1,0.2,0.3,0.2,0.5,0.3c0.1,0,0.2,0.2,0.3,0.2
		c0.1,0.1,0.2,0.1,0.4,0.2c0.5,0.2,1.1,0.4,1.1,0.9c0,0.1-0.2,0.1-0.1,0.3c0.1,0.1,0.3,0,0.4,0c0.2,0,0.5,0.2,0.6,0.3
		c0.5,0.3,0.6,1.1,0.9,1.5c-0.2,0.1-0.5,0.2-0.6,0.4c0.3,0.2,0.6,0,0.9,0.2c0.2,0.3,0.3,0.7,0.2,1c-0.2,0.4-0.4,0.4-0.1,0.9
		c0.2,0.3,0.4,0.4,0.5,0.7c0.1,0.3,0.1,0.6,0.1,0.8c0,0.4,0.1,0.8-0.1,1.2c-0.1,0.1-0.2,0.2-0.3,0.3c-0.1,0.2,0,0.3,0,0.5
		c0,0.2-0.1,0.3-0.1,0.4c0,0.1,0,0.3-0.1,0.4c-0.1,0.2-0.3,0.4-0.5,0.6c-0.2,0.3-0.2,0.4-0.4,0.7c-0.1,0.2-0.4,0.4-0.5,0.6
		c-0.3,0.2-0.5,0.5-0.8,0.6c-0.3,0.2-0.4,0.4-0.6,0.6c-0.3,0.3-0.4,0.1-0.7,0.1c-0.4,0-0.5,0.3-0.8,0.5c-0.3,0.3-0.6,0.3-0.9,0.4
		c-0.3,0.1-0.7,0.3-1,0.2c-0.3-0.1-0.6,0-0.7,0c-0.2,0-0.4,0-0.5-0.1c-0.1-0.2,0-0.4-0.1-0.4c-0.1,0-0.3,0.4-0.4,0.4
		c-0.5,0-0.5,0.2-0.8,0.2c-0.4,0.1-0.4,0-0.8-0.1c-0.2-0.1-0.3-0.2-0.5-0.3c-0.2-0.1-0.4-0.2-0.6-0.3c-0.6-0.2-0.9-0.5-1.3-0.9
		c-0.3-0.4-1.3-1.3-1.4-1.5c-0.3-0.5-1-1.1-0.6-1.6c0.1,0,0.3-0.1,0.4-0.2c0-0.2-0.2-0.2-0.3-0.2c-0.4-0.1-0.5-0.2-0.6-0.5
		c-0.1-0.3-0.2-0.6-0.2-0.9c0-0.3,0.3-0.4,0.3-0.6c0.1-0.4-0.4-0.4-0.5-0.6c-0.2-0.3,0.1-0.6,0.2-0.9c0-0.1,0.1-0.3,0.1-0.4
		c0.1-0.1,0.2-0.1,0.3-0.2c0.3-0.3,0.1-0.4,0-0.7c-0.1-0.5,0.3-0.8,0.5-1.2c0.1-0.2,0.2-0.5,0.4-0.7C42.6,15.5,42.8,15.4,42.9,15.2z
		"/>
	<g>
		<path class="st20" d="M123.9,29.1c-0.4,0.1-0.4,0.5-0.6,0.8c-0.2,0.3-0.4,0.6-0.5,0.9c-0.2,0.7-0.5,1.3-1,1.9
			c-0.2,0.2-0.5,0.4-0.6,0.6c-0.2,0.3,0,0.6-0.3,0.8c-0.4,0.3-1,0.8-1.2,1.2c0.2,0.5-0.4,0.6-0.7,0.9c-0.1,0.1-0.1,0.3-0.2,0.4
			c-0.1,0.1-0.3,0.3-0.5,0.4c-0.2,0.1-0.3,0.3-0.3,0.4c0,0.2,0,0.3-0.2,0.4c-0.2,0.1-0.3,0-0.4,0.1c-0.2,0.1-0.3,0.4-0.5,0.5
			c-0.1,0.1-0.3,0.2-0.4,0.3c-0.2,0.2-0.5,0.3-0.7,0.5c-0.1,0.1-0.3,0.2-0.5,0.3c-0.3,0.2-0.5,0.5-0.7,0.7c-0.1,0.1-0.3,0.2-0.5,0.3
			c-0.1,0.1-0.5,0.1-0.6,0.3c-0.1,0.1,0,0.3-0.1,0.4c-0.1,0.2-0.3,0.2-0.5,0c-0.1,0.1-0.3,0.1-0.4,0.2c-0.2,0.1-0.3,0.3-0.4,0.4
			c-0.2,0.2-0.6,0.4-0.5,0.7c-0.2,0-0.4-0.1-0.6-0.2c-0.2,0.1-0.3,0.3-0.4,0.4c-0.2,0.1-0.3,0.3-0.5,0.4c-0.2,0.2-0.2,0.3-0.5,0.4
			c-0.4,0.1-0.5,0.2-0.8,0.4c0.1,0.2-0.4,0.3-0.4,0.1c-0.2,0-0.4,0.2-0.6,0.3c-0.3,0.1-0.5,0.2-0.8,0.3c-0.2,0.1-0.4,0.2-0.7,0.3
			c-0.4,0.2-0.6,0.3-0.9,0.5c-0.1,0.1-0.3,0.1-0.4,0.2c-0.4,0.2-0.5,0.5-1,0.5c-0.2,0-0.5,0-0.7,0.1c-0.1,0.1-0.2,0.2-0.3,0.3
			c-0.3,0.3-0.4,0.2-0.8,0.3c-0.2,0-0.4,0.1-0.6,0.2c-0.4,0.2-0.7,0.5-1,0.7c-0.3,0.1-0.8,0.1-1.1,0.4c-0.3,0.3-0.4,0.4-0.9,0.4
			c-0.2,0-0.5-0.1-0.7,0c-0.2,0-0.3,0.2-0.3,0.4c-0.1,0.1-0.1,0.3-0.2,0.4c-0.1,0-0.2-0.1-0.3-0.2c-0.2,0-0.2,0-0.3,0.1
			c-0.1,0.1-0.2,0.2-0.4,0.2c-0.2,0.1-0.3,0-0.5,0.1c-0.2,0-0.3,0.1-0.4,0.2c-0.2,0.1-0.3,0-0.5,0.1c-0.1,0-0.3,0.2-0.4,0.2
			c-0.2,0-0.4,0-0.5,0.1c-0.1,0.1-0.3,0.1-0.4,0.2c-0.2,0.1-0.3,0.1-0.5,0.2c-0.2,0.1-0.3,0.2-0.5,0.3c-0.2,0.1-0.3,0.1-0.5,0.2
			c-0.2,0.1-0.3,0.1-0.5,0.2c-0.2,0-0.4,0-0.5,0.2c-0.2,0.2-0.3,0.2-0.5,0.2c-0.1,0-0.3-0.1-0.4,0c-0.2,0.1-0.3,0.3-0.6,0.3
			c-0.2,0-0.3,0-0.5,0c-0.1,0-0.2,0.1-0.4,0.1c-0.3,0.1-0.6,0.1-0.9,0.2c-0.2,0-0.3,0.1-0.4,0.1c-0.2,0-0.3,0-0.5,0
			c-0.3,0-0.6,0-0.8,0c-0.1-0.4,0-0.7,0.1-1.1c0.1-0.2,0-0.5,0-0.7c0-0.2,0.1-0.4,0.2-0.6c-0.2-0.3-0.3-0.4-0.1-0.7
			c0.2-0.2,0.3-0.3,0.3-0.7c0-0.1,0-0.3,0.1-0.5c0-0.1,0.2-0.3,0.2-0.4c0-0.1,0-0.3,0-0.4c-0.1-0.2-0.3-0.2-0.3-0.4
			c0.1-0.1,0.2-0.2,0.3-0.3c0.1-0.2,0.1-0.3,0.1-0.5c0-0.1,0.1-0.1,0.2-0.2c0.1-0.1,0.1-0.4,0.1-0.5c0-0.2-0.1-0.3,0-0.5
			c0.2-0.3,0.4-0.5,0.6-0.8c0.1-0.1,0.2-0.2,0.3-0.3c0.1-0.1,0.2-0.3,0.3-0.3c0.1,0,0.5,0.2,0.6,0.2c0.2,0.1,0.4,0.2,0.5,0.3
			c0,0,0,0,0,0c-0.1-0.4-0.4-0.5-0.7-0.8c-0.2-0.2-0.6-0.5-0.8-0.6c0-0.1-0.1-0.2-0.2-0.3c-0.3,0-0.5-0.3-0.8-0.3
			c-0.3-0.1-0.7,0.3-0.9,0.6c-0.2,0.2-0.5,0.6-0.8,0.6c-0.4,0-0.8,0.2-1.2,0.3c-0.3,0.1-0.7,0.2-1,0.2c-0.5-0.1-0.6,0.2-0.9,0.4
			c-0.2,0.1-0.4,0.1-0.7,0.1c-0.1,0-0.1,0-0.2,0c-0.1,0-0.1,0.1-0.2,0.1c-0.2,0-0.3,0.1-0.5,0.1c-0.3,0.1-0.2,0.1-0.2,0.4
			c0,0.4-0.5,0.8-0.5,1.2c0,0.4,0,0.8-0.2,1.1c-0.1,0.1-0.3,0.2-0.4,0.4c-0.1,0.2-0.2,0.4-0.2,0.6c-0.1,0.3,0.1,0.7-0.1,1
			c-0.2,0.3-0.4,0.4-0.4,0.8c0,0.2,0,0.3-0.1,0.5c-0.1,0.1-0.1,0.3-0.1,0.5c-0.1,0.2-0.2,0.2-0.3,0.4c0,0.1,0,0.2,0,0.2
			c0,0.1-0.1,0.1-0.2,0.2c-0.1,0.1-0.1,0.3-0.2,0.4c-0.1,0.1,0,0.1-0.1,0.2c0,0-0.2-0.1-0.3-0.1c-0.2,0-0.3,0-0.5,0.1
			c-0.2,0-0.3-0.1-0.5-0.2c-0.2-0.1-0.4-0.2-0.6-0.2c-0.1,0-0.2,0.1-0.3,0.1c-0.1,0-0.1,0-0.2-0.1c-0.2-0.1-0.4,0-0.6-0.2
			c-0.2-0.1-0.3-0.1-0.6-0.2c-0.2,0-0.3-0.1-0.5-0.1c-0.2,0-0.3,0.1-0.5,0.1c-0.1-0.1-0.2-0.1-0.3-0.1c-0.1,0-0.2,0-0.3-0.1
			c-0.2-0.1-0.3-0.2-0.5-0.3c-0.2-0.1-0.4,0-0.5,0c-0.1,0-0.3-0.1-0.4-0.1c-0.1-0.1-0.2-0.2-0.3-0.3c-0.2-0.1-0.4-0.2-0.6-0.2
			c-0.2,0-0.3,0-0.5,0c-0.1,0-0.3-0.1-0.4-0.1c-0.1,0-0.1,0-0.2,0c-0.1-0.1-0.2-0.2-0.3-0.3c-0.2-0.1-0.3,0-0.5-0.1
			c-0.1,0-0.2-0.2-0.3-0.3c-0.2-0.1-0.3-0.1-0.5-0.1c-0.3,0-0.6-0.2-1-0.3c-0.3-0.1-0.7-0.3-0.9-0.5c-0.2-0.1-0.2-0.3-0.5-0.3
			c-0.3,0-0.5,0.1-0.8,0c-0.2-0.1-0.3-0.2-0.6-0.2c-0.3,0-0.2,0.1-0.4-0.2c-0.1-0.1-0.2-0.3-0.4-0.3c-0.1,0-0.2,0.1-0.3,0.1
			c0,0-0.2-0.1-0.2-0.2c-0.1-0.1-0.2-0.2-0.4-0.2c-0.2,0-0.5,0.2-0.8,0.1c-0.3-0.1-0.5-0.5-0.8-0.7c-0.3-0.2-0.6-0.5-0.9-0.5
			c-0.4,0-0.7-0.2-1.1-0.4c-0.2-0.1-0.3-0.2-0.5-0.2c-0.1,0-0.3,0-0.4-0.1c-0.1,0-0.1-0.1-0.1-0.2c-0.3-0.3-0.9-0.1-1.2-0.4
			c-0.2-0.1-0.3-0.3-0.6-0.4c-0.1,0-0.2,0-0.2-0.1c-0.2-0.1-0.4-0.2-0.6-0.4c-0.3-0.1-0.5-0.2-0.8-0.3c-0.3-0.1-0.6-0.4-1-0.4
			c-0.1,0-0.2,0-0.3,0c0,0-0.1-0.2-0.1-0.3c-0.1-0.2-0.2-0.4-0.4-0.5c-0.2-0.1-0.4-0.1-0.6-0.2c-0.1-0.1-0.1-0.2-0.2-0.3
			c-0.1,0-0.2,0-0.3,0c-0.2-0.1-0.3-0.2-0.4-0.3c-0.3-0.2-0.8-0.2-1.1-0.4c-0.2-0.1-0.2-0.3-0.3-0.5c-0.1-0.2-0.3-0.2-0.6-0.3
			c-0.2,0-0.3-0.1-0.5-0.2c-0.2-0.1-0.4-0.1-0.6-0.2c-0.3-0.2-0.6-0.5-0.8-0.8c-0.1-0.1-0.2-0.3-0.4-0.4c-0.2-0.1-0.3,0-0.5-0.1
			c-0.2-0.1-0.3-0.1-0.3-0.3c-0.1-0.3-0.3-0.4-0.5-0.7c-0.2-0.2-0.6-0.3-0.8-0.6c-0.1-0.2-0.2-0.3-0.5-0.4c-0.3-0.1-0.3-0.2-0.5-0.4
			c-0.2-0.2-0.4-0.4-0.6-0.6c-0.1-0.1-0.3-0.2-0.4-0.3c-0.3-0.3-0.5-0.7-0.9-0.9c-0.1,0.1,0,0.2,0.1,0.4c0,0.2,0,0.4,0,0.5
			c0,0.4,0.1,0.6,0.4,0.9c0.2,0.1,0.2,0.2,0.4,0.4c0.1,0.1,0.1,0.4,0.2,0.5c0.3,0.3,0.7,0.2,1,0.6c0.2,0.3,0.7,0.5,1.1,0.5
			c0,0.2-0.1,0.4,0.1,0.5c0.2,0.1,0.4,0.2,0.5,0.4c0.1,0.1,0.2,0.2,0.1,0.4C45,39.9,44.7,40,44.5,40c-0.2,0-0.4-0.2-0.6-0.2
			c-0.2,0-0.4,0.1-0.6,0.1c-0.3,0-0.4,0.1-0.6,0.2c-0.2,0.1-0.5,0.1-0.7,0.1c-0.3,0.1-1,0.2-1.1,0.5c0.2,0.1,0.4-0.1,0.6-0.1
			c0.2,0,0.4,0,0.6,0c0.2,0,0.3,0.1,0.5,0.2c0.2,0,0.4,0,0.7,0c0.3,0,0.7,0.2,1.1,0.2c0.2,0,0.4-0.1,0.6,0c0.1,0,0.3,0.2,0.4,0.2
			c0.6,0.2,0.8-0.4,1.4-0.2c0.1,0.5,0.6,0.4,1,0.6c0.2,0.1,0.4,0.3,0.5,0.4c0.2,0.1,0.4,0.2,0.6,0.4c0,0-0.4,0.1-0.5,0.1
			c-0.2,0.1-0.3,0.1-0.4,0.3c-0.1,0.1-0.1,0.2-0.3,0.3c-0.1,0.1-0.3,0.1-0.4,0.2c-0.2,0.1-0.2,0.3-0.4,0.4c-0.1,0.1-0.4,0-0.6,0.1
			c-0.2,0-0.3,0.2-0.5,0.2c-0.2,0.1-0.4,0.1-0.6,0.1c-0.3,0.1-0.7,0.2-0.8,0.5c0.4,0,0.8,0,1.2-0.1c0.4-0.1,0.8-0.2,1.1-0.1
			c0.2,0.1,0.3,0.1,0.5,0c0.2-0.1,0.3-0.2,0.5-0.3c0.2,0,0.4,0,0.6,0c0.2,0,0.4-0.1,0.7-0.2c0.3-0.1,0.7-0.2,1-0.3
			c0.2,0,0.3-0.1,0.5-0.1c0.2,0,0.4,0.2,0.6,0.2c0.3,0.1,0.8,0.2,1,0.5c0.3,0.3,0.5,0.5,0.9,0.5c0,0.2-0.5,0.5-0.6,0.6
			c-0.2,0.1-0.4,0.1-0.6,0.1c-0.2,0-0.3,0.1-0.5,0.2c-0.7,0.3-1.3,0.8-2,0.9c-0.4,0.1-1.1,0-1.4,0.3c-0.2,0.2-0.4,0.5-0.6,0.7
			c-0.2,0.2-0.6,0.4-0.6,0.6c0.2,0.1,0.4,0,0.5-0.1c0.2-0.1,0.5-0.2,0.7-0.3c0.2-0.1,0.4-0.2,0.6-0.2c0.3,0,0.5,0.1,0.8-0.1
			c0.4-0.2,0.8-0.2,1.3-0.3c0.2,0,0.5,0,0.7-0.1c0.2-0.1,0.3-0.2,0.5-0.2c0.2-0.1,0.3-0.2,0.4-0.3c0.2-0.1,0.4-0.1,0.6-0.1
			c0.2-0.1,0.4-0.3,0.6-0.3c0.2,0,0.4,0,0.6,0c0.2,0,0.4,0,0.6,0c0.3,0,0.4-0.2,0.7-0.3c0.3-0.2,0.7,0.3,0.9,0.5
			c0.2,0.2,0.5,0.4,0.8,0.3c0.2,0,0.2-0.1,0.3,0c0.1,0.1,0.1,0.1,0.2,0.2c-0.2,0.2-0.5,0.3-0.7,0.4c-0.2,0.2-0.4,0.3-0.6,0.5
			c-0.1,0.1-0.2,0.2-0.3,0.4c-0.1,0.2-0.1,0.3-0.4,0.4c-0.2,0.1-0.6,0.2-0.8,0.3c-0.2,0.1-0.3,0.3-0.4,0.4c-0.1,0.1-0.3,0.2-0.5,0.3
			c-0.2,0.1-0.4,0.3-0.6,0.4c-0.2,0.1-0.4,0.2-0.4,0.4c-0.1,0-0.3-0.1-0.5-0.2c-0.3,0.3-0.4,0.8-0.9,1c-0.3,0.1-0.5,0.3-0.7,0.5
			c-0.1,0.2-0.4,0.4-0.5,0.6c0.5,0,0.8-0.3,1.2-0.5c0.1,0,0.3-0.1,0.4-0.1c0.1-0.1,0.2-0.2,0.3-0.3c0.2-0.1,0.4-0.1,0.6-0.2
			c0.3-0.1,0.5-0.1,0.8-0.3c0.3-0.2,0.5-0.2,0.9-0.3c0.3-0.1,0.4-0.6,0.8-0.6c0.3,0,0.7,0.1,0.9-0.1c0.2-0.1,0.1-0.3,0-0.4
			c0,0-0.2,0-0.2,0c-0.1,0-0.2-0.1-0.3-0.1c-0.2,0,0.5-0.6,0.6-0.6c0.1,0,0.1-0.1,0.2-0.1c0.3,0,0.1,0.2,0.2,0.4
			c0,0.1,0.2,0.1,0.2,0.1c0.2-0.1,0.5-0.3,0.7-0.4c0.3-0.2,0.6-0.2,0.9-0.4c0.2-0.2,0.4-0.4,0.7-0.5c0.4-0.2,0.6,0.1,0.9,0.3
			c0.2-0.2,0.5-0.2,0.8-0.1c0.2,0.1,0.5,0.4,0.7,0.4c-0.1,0.2-0.2,0.3-0.3,0.5c0,0.1,0,0.2,0,0.3c0,0.1-0.2,0.2-0.3,0.3
			c-0.2,0.2,0,0.3-0.1,0.5c-0.1,0.2-0.5,0.3-0.7,0.4c-0.3,0.2-0.7,0.6-1,0.8c-0.3,0.3-0.6,0.7-0.8,1c-0.1,0.3-0.4,0.4-0.6,0.6
			c-0.1,0.1-0.2,0.3-0.3,0.4c-0.1,0.1-0.2,0.1-0.3,0.1c-0.2,0.1-0.4,0.4-0.5,0.6c0,0.3-0.1,0.5-0.4,0.7c-0.1,0.1-0.3,0.2-0.4,0.3
			c-0.1,0.1,0,0.2-0.2,0.4c-0.1,0.1-0.5,0.3-0.5,0.5c0.4,0,0.7-0.3,1-0.5c0.1-0.1,0.3-0.2,0.5-0.3c0.1-0.1,0.3,0,0.4-0.1
			c0.1-0.1,0.1-0.2,0.1-0.3c0.1-0.1,0.2-0.2,0.3-0.3c0.1-0.1,0.2-0.3,0.4-0.5c0.1-0.1,0.2-0.3,0.4-0.3c0.2-0.1,0.5,0,0.7-0.2
			c0.1-0.1,0.1-0.4,0.2-0.6c0.1-0.2,0.2-0.2,0.5-0.3c0.3-0.1,0.5-0.3,0.8-0.6c0.2-0.2,0.4-0.4,0.7-0.6c0.1-0.1,0.3-0.1,0.4-0.2
			c0.1-0.1,0.2-0.3,0.3-0.4c0,0,0,0,0,0c0.1-0.1,0.2-0.3,0.3-0.4c0.1-0.1,0.3-0.2,0.4-0.3c0.1-0.1,0.1-0.1,0.2-0.2
			c0.1-0.1,0.1-0.2,0.1-0.3c0.1-0.1,0.2-0.2,0.4-0.3c0.2-0.2,0.2-0.2,0.4-0.1c0.2,0.1,0.3,0.2,0.5,0.3c0.1,0.1,0.3,0.2,0.5,0.2
			c0.2,0.1,0.3,0.2,0.5,0.3c0.1,0,0.2,0.1,0.2,0.1c-0.2,0.3-0.7,0.6-0.8,1c-0.1,0.2,0,0.5,0,0.7c0,0.3-0.1,0.4-0.2,0.6
			c-0.2,0.4-0.4,0.9-0.5,1.3c0,0.4-0.2,0.8-0.5,1.2c-0.3,0.4-0.3,0.7-0.4,1.2c-0.1,0.5-0.4,0.8-0.8,1.1c-0.3,0.4-0.5,0.7-0.6,1.1
			c-0.2,0.5-0.4,0.9-0.4,1.4c0.2,0,0.4-0.3,0.5-0.5c0.1-0.2,0.3-0.4,0.5-0.6c0.3-0.3,0.6-0.7,0.9-1c0.2-0.2,0.5-0.4,0.5-0.6
			c0-0.1,0-0.3,0-0.4c0.1-0.1,0.2-0.1,0.3-0.2c0.2-0.2,0.3-0.6,0.5-0.8c0.1-0.1,0.1-0.2,0.1-0.3c0.1-0.2-0.1-0.1,0.2-0.2
			c0.2-0.1,0.3,0,0.4-0.2c0.1-0.2,0-0.4,0.1-0.5c0.1-0.1,0.3-0.1,0.4-0.2c0.1-0.1,0.2-0.3,0.2-0.4c0.1-0.3,0-0.6,0.2-0.8
			c0.1-0.2,0.7-0.5,0.4-0.7c0.1-0.1,0.3-0.2,0.4-0.2c0.2-0.1,0.2-0.2,0.3-0.4c0.1-0.2,0.2-0.8,0.4-0.9c0.2-0.1,0.7,0.2,0.9,0.3
			c0.3,0.1,0.6,0.3,0.9,0.4c0.1,0.3-0.2,0.4-0.3,0.7c-0.1,0.2,0.1,0.4,0,0.7c-0.1,0.3-0.4,0.4-0.4,0.7c0.1,0.2,0.2,0.4,0.1,0.7
			c-0.2,0.5-0.5,0.8-0.5,1.3c0,0.5,0.1,1.1-0.2,1.6c-0.1,0.2-0.2,0.4-0.2,0.5c-0.1,0.2-0.3,0.4-0.3,0.6c-0.1,0.4-0.1,0.9,0,1.3
			c0.1,0.4,0,0.8-0.1,1.2c0,0.2-0.1,0.4-0.2,0.5c-0.1,0.2-0.3,0.4-0.2,0.6c0.3-0.1,0.5-0.7,0.7-0.9c0.2-0.3,0.4-0.5,0.5-0.9
			c0.1-0.3,0.2-0.8,0.4-1.1c0.1-0.2,0.3-0.3,0.2-0.5c-0.1-0.2-0.3-0.3-0.4-0.5c0.2-0.2,0.6-0.4,0.8-0.6c0.2-0.1,0.2-0.1,0.2-0.3
			c0-0.2-0.1-0.5,0.1-0.7c0,0-0.1,0-0.1,0c0.1-0.3,0.2-0.7,0.4-1c0.1-0.1,0.2-0.3,0.2-0.4c0-0.2-0.2-0.3-0.2-0.5c0,0-0.1,0-0.1,0
			c0.1-0.2,0.3-0.3,0.4-0.5c0.1-0.2,0.1-0.5,0.2-0.7c0.1-0.2,0.1-0.4,0.2-0.7c0.1-0.2,0.1-0.5,0.2-0.7c0.3,0.1,0.6,0,0.9,0.1
			c0.3,0.1,0.5,0.2,0.8,0.3c0.3-0.5,0.9-0.2,0.9,0.4c0,0.2-0.1,0.4-0.1,0.7c0,0.2,0,0.5,0,0.8c0,0.3,0,0.5,0,0.8
			c0,0.2,0.2,0.4,0.2,0.6c0,0.3-0.2,0.4-0.2,0.7c0,0.3,0.1,0.4,0.2,0.7c0.1,0.4,0.2,0.7,0.2,1.2c0,0.3,0,0.3-0.1,0.6
			c-0.1,0.2-0.1,0.2,0,0.4c0,0.2,0.1,0.4,0.1,0.5c0.1,0.2,0.1,0.4,0.1,0.5c0,0.4-0.1,1,0.1,1.4c-0.1,0.1-0.2,0.5-0.1,0.6
			c0.2,0.2,0.4-0.1,0.4-0.3c0.1-0.2,0-0.5,0.1-0.7c0-0.2,0.1-0.5,0.1-0.7c0-0.2-0.1-0.4-0.1-0.7c0-0.3,0.1-0.4,0.2-0.6
			c0.2-0.3,0.1-0.4,0.2-0.7c0-0.2,0.1-0.2,0.1-0.4c0-0.1-0.2-0.2-0.2-0.3c0-0.1,0.2-0.2,0.2-0.3c0.1-0.1,0-0.3,0-0.4
			c0-0.3,0.4-0.4,0.4-0.7c0-0.2-0.1-0.3-0.1-0.4c0-0.2,0-0.4,0-0.5c0-0.3-0.1-0.5,0-0.8c0,0,0,0-0.1,0c0-0.2,0.2-0.3,0.2-0.5
			c0-0.3-0.2-0.4-0.2-0.6c0,0,0,0,0.1-0.1c0,0,0.1,0,0.1-0.1c0.1,0,0.2-0.1,0.3,0c0,0,0.1,0,0.1,0c0.1,0,0.2,0.3,0.2,0.3
			c0.1,0.1,0.2,0.2,0.3,0.2c0,0.1,0,0.3,0,0.4c0,0.1,0.1,0.2,0.1,0.3c0.4,0.1,0.2,0.6,0.7,0.8c0.1,0.2-0.5,0.4-0.1,0.6
			c0,0.2,0.1,0.4,0.2,0.6c0,0.2,0.2,0.4,0.3,0.6c0.1,0.1,0.1,0.2,0.1,0.3c0,0.2-0.1,0.3,0,0.4c0.1,0.1,0.2,0.1,0.3,0.2
			c0.1,0.1,0.1,0.2,0.2,0.4c0.1,0.1,0,0.2,0.1,0.3c0,0.2,0.1,0.2,0.2,0.4c0.1,0.1,0.1,0.1,0,0.3c0,0.2,0,0.1,0.1,0.3
			c0.1,0.1,0.1,0.4,0.2,0.5c0.1,0.1,0.6,0.1,0.8,0c0.1,0.2,0,0.5-0.1,0.7c-0.1,0.2-0.3,0.4-0.1,0.5c0.2,0.1,0.3,0.2,0.5,0.3
			c0.4,0.2-0.1,0.5,0.2,0.9c0.1,0.1,0.3,0.1,0.4,0.2c0.1,0.1,0,0.3,0,0.5c0.1,0.2,0.2,0.3,0.3,0.4c0.2,0.2,0.4,0.5,0.7,0.7
			c0.1,0.1,0.3,0.3,0.3,0.4c0.1,0.3,0,0.4,0.1,0.6c0,0.1,0.1,0.1,0.1,0.2c-0.1,0.1-0.3,0.3-0.4,0.4c-0.1,0.1-0.3,0.2-0.4,0.3
			c-0.1,0.1,0,0.2-0.1,0.3c-0.1,0.2-0.3,0.3-0.5,0.5c-0.2,0.2-0.3,0.2-0.5,0.3c0-0.1,0.2-0.4,0.2-0.5c0.1-0.2,0.3-0.3,0.4-0.5
			c-0.2,0-0.4,0.2-0.5,0.2c-0.2,0.1-0.3,0.3-0.5,0.4c-0.2,0.1-0.4,0-0.5,0.2c-0.1,0.1-0.2,0.3-0.3,0.4c-0.2,0.2-0.3,0.2-0.6,0.2
			c-0.2,0-0.3,0.1-0.5,0.3c-0.2,0.1-0.4,0.2-0.6,0.3c-0.3,0.1-0.3-0.1-0.3-0.3c0-0.2-0.2-0.4-0.3-0.6c-0.1-0.2-0.2-0.1-0.4-0.2
			c-0.1-0.1-0.2-0.2-0.3-0.3c0-0.2,0.1-0.3,0.1-0.5c0-0.2-0.2-0.4-0.3-0.5c-0.1-0.2-0.1-0.3-0.4-0.4c-0.3-0.1-0.5-0.4-0.6-0.7
			c-0.1-0.2-0.3-0.8-0.6-0.8c-0.1,0-0.2,0.2-0.3,0.3c-0.1,0.1-0.3,0.2-0.4,0.3c-0.1,0.1-0.3,0.3-0.3,0.4c0,0.1,0.1,0.1,0,0.2
			c0,0.1-0.2,0.2-0.3,0.2c-0.2,0.1-0.2,0.2-0.3,0.4c-0.1,0.1-0.2,0.2-0.3,0.3c-0.1,0.1,0,0.3,0,0.4c0,0.1-0.1,0.3-0.1,0.4
			c0.2-0.1,0.5-0.5,0.6-0.7c0.1-0.1,0.2-0.2,0.3-0.3c0.2-0.1,0.4-0.1,0.6-0.2c0.3-0.1,0.6-0.2,0.7,0.1c0,0.1,0,0.1,0,0.2
			c0,0.2,0.1,0.2,0.2,0.3c0.1,0.1,0.1,0.3,0.2,0.5c-0.4,0.1-0.7,0-1.1,0c-0.3,0-0.5,0.4-0.6,0.6c-0.1,0.2,0,0.2-0.1,0.4
			c0,0.2-0.2,0.4-0.3,0.6c0,0.2-0.1,0.4-0.1,0.5c-0.1,0.2-0.2,0.4-0.3,0.6c0,0.1,0,0.2-0.1,0.3c0.3,0,0.5,0.1,0.7-0.3
			c0.1-0.1,0.1-0.2,0.1-0.3c0.1-0.1,0.1-0.2,0.2-0.3c0.1-0.2,0.2-0.4,0.4-0.6c0.1-0.1,0.2-0.1,0.2-0.3c0-0.1-0.1-0.3-0.1-0.4
			c0.2,0.1,0.3,0.1,0.5,0c0.1,0,0.4-0.1,0.5,0c0.2,0.1,0.2,0.3,0.3,0.3c0.1,0.1,0.3,0,0.4,0c0.1,0,0.1,0.1,0.1,0.1
			c0.3,0.3,0.3,0.7,0.6,1c0.2,0.3,0.3,0.5,0.4,0.8c0.1,0.2,0.3,0.2,0.4,0.3c0,0.1,0,0.1,0,0.2c0,0.1,0.1,0.1,0.1,0.2
			c0.2,0.3,0.2,0.5,0.2,0.8c0,0.2,0.2,0.5-0.1,0.6c-0.3,0.1-0.6-0.1-0.9,0.1c-0.3,0.2-0.4,0.3-0.8,0.3c-0.3,0-0.6,0-0.7,0.3
			c0.3,0.1,0.7,0.1,1,0.1c0.2,0,0.5,0,0.7,0c0.2,0,0.4-0.2,0.6-0.2c0.2,0,0.3,0,0.5,0c0.2,0,0.5,0,0.7,0c0.2,0,0.4,0.2,0.6,0
			c0.1-0.1,0.1-0.2,0-0.3c0,0-0.1,0-0.2-0.1c0,0,0-0.1,0-0.1c-0.1-0.1-0.2-0.3-0.1-0.4c0-0.1,0.2-0.2,0.1-0.3c0-0.1-0.2-0.1-0.3-0.1
			c-0.2-0.2-0.1-0.3-0.1-0.5c0-0.2-0.2-0.3-0.3-0.4c-0.1-0.2-0.6-0.6-0.5-0.9c0-0.1,0.2-0.2,0.3-0.3c0.2-0.1,0.2-0.1,0.4-0.1
			c0.2,0,0.4,0.1,0.6-0.1c0.1,0.1,0.4,0.2,0.5,0c0,0,0,0,0,0c0.3-0.1,0.5-0.5,0.8-0.6c0.3-0.1,0.6,0,0.9-0.1
			c0.3-0.1,0.5-0.4,0.7-0.6c0.1-0.1,0.2-0.3,0.3-0.4c0.1-0.1,0.3,0,0.4,0c0.2,0.3-0.1,0.6-0.3,0.8c-0.1,0.1-0.2,0.2-0.2,0.4
			c0,0.2,0.1,0.4,0,0.5c0,0.1-0.2,0.2-0.3,0.4c-0.1,0.2,0,0.3,0,0.4c0,0.3-0.3,0.6-0.3,1c0,0.3,0.1,0.4-0.2,0.7
			c-0.2,0.2-0.3,0.4-0.4,0.7c0.3,0.1,0.6,0.1,0.9,0.2c0.2,0,0.3,0,0.5,0c0.1,0,0.3,0.1,0.4,0.2c0.2,0.1,0.5,0.1,0.7,0.1
			c0.2,0,0.3-0.2,0.4-0.2c0.1,0,0.3,0.1,0.5,0.1c0.1,0,0.2-0.2,0.4-0.2c0.2,0,0.3,0.1,0.5,0.1c0.2,0,0.3-0.1,0.4-0.2
			c0.2,0,0.4,0.1,0.5,0c0.2,0,0.3-0.2,0.4-0.3c0.2-0.1,0.9-0.2,0.8-0.3c0-0.1-0.3-0.3-0.3-0.4c-0.1-0.1-0.2-0.3-0.3-0.4
			c-0.1-0.1-0.1-0.3-0.2-0.4c-0.1-0.1-0.3-0.1-0.4-0.2c-0.1-0.1-0.1-0.3-0.2-0.4c-0.1-0.2-0.1-0.3-0.2-0.5c-0.1-0.3-0.5-0.4-0.5-0.7
			c0-0.2,0-0.3-0.1-0.4c-0.1-0.2-0.2-0.3-0.3-0.4c-0.1-0.1-0.2-0.3-0.2-0.5c0,0,0.1-0.1,0.1-0.1c0.2,0.2,0.6,0.3,0.9,0.3
			c0.2,0,0.3,0,0.4,0.2c0.1,0.1,0,0.3,0.2,0.4c0.2,0.2,0.7,0,1,0.1c0.1,0.1,0.2,0.2,0.3,0.3c0.1,0.2,0.1,0.2,0.3,0.2
			c0.2,0.1,0.2,0.2,0.3,0.3c0.1,0.1,0.3,0,0.5,0c0.2,0,0.3,0,0.5,0c0.1,0,0.4-0.1,0.4,0c0.1,0.1,0,0.4,0,0.4c0,0.1-0.2,0.2-0.2,0.3
			c-0.2,0.3-0.1,0.6-0.2,0.9c0,0.2,0,0.3-0.1,0.5c-0.1,0.1-0.2,0.2-0.3,0.3c0,0.1,0,0.2,0,0.2c-0.1,0.3-0.4,0.5-0.4,0.8
			c0.4,0.1,0.7-0.1,1.1,0c0.3,0.1,0.6,0,0.8,0.1c0.3,0.1,0.6,0.1,0.9,0c0.3-0.1,0.7-0.1,1,0c0.2-0.2-0.4-0.6-0.6-0.6
			c-0.2,0-0.3,0.1-0.4,0.1c-0.2,0-0.3-0.1-0.5-0.2c-0.2-0.1-0.4-0.1-0.6-0.2c-0.2-0.1-0.3-0.1-0.2-0.3c0-0.3,0.1-0.6,0.2-0.9
			c0-0.1,0.1-0.1,0.1-0.2c0-0.1,0-0.2,0-0.2c0-0.2,0.1-0.2,0.2-0.4c0.1-0.1,0.1-0.2,0.3-0.4c0.1-0.1,0.2-0.1,0.2-0.3
			c0.1-0.3,0-0.6,0.3-0.9c0.2-0.2,0.6-0.2,0.8-0.3c0.3-0.1,0.5-0.3,0.8-0.5c0.1-0.1,0.3-0.2,0.4-0.1c0.2,0.1,0.2,0.3,0.3,0.5
			c0.1,0.1,0.1,0.3,0.2,0.4c0.1,0.1,0.3,0.2,0.3,0.3c0.1,0.1,0.1,0.3,0.2,0.4c0.1,0.1,0,0.4,0.2,0.4c0.2-0.2,0.1-0.9,0-1.2
			c0,0,0,0,0,0c0-0.2,0.1-0.3,0-0.4c-0.1-0.1-0.2-0.2-0.3-0.3c0,0,0,0,0,0c0-0.1-0.2-0.2-0.2-0.4c-0.1-0.2,0-0.3,0-0.4
			c0-0.2-0.1-0.2-0.2-0.4c-0.1-0.1-0.1-0.3-0.3-0.3c-0.2,0-0.6,0.3-0.8,0.4c-0.3,0.1-0.4,0.3-0.7,0.4c0.1-0.3,0.4-0.5,0.5-0.8
			c0.1-0.1,0-0.3,0.1-0.4c0.1-0.1,0.2-0.2,0.2-0.4c0.1-0.1,0.1-0.3,0.2-0.3c0.1,0.2,0.3,0.2,0.5,0.3c0.2,0.1,0.4,0.2,0.6,0.3
			c0.2,0.1,0.5,0.1,0.6,0.3c0.2,0.1,0.2,0.3,0.4,0.4c0.2-0.2-0.1-0.6-0.3-0.8c-0.1-0.1-0.2-0.3-0.3-0.4c-0.1-0.1-0.4-0.2-0.5-0.3
			c-0.1-0.1-0.1-0.3-0.1-0.5c-0.1-0.2-0.2-0.2-0.4-0.4c-0.2-0.1-0.5-0.6-0.8-0.6c-0.2,0-0.3,0.6-0.3,0.8c-0.1,0.2-0.3,0.5-0.5,0.7
			c-0.1,0.1-0.3,0.1-0.3,0.2c-0.1,0.1,0,0.3-0.1,0.5c-0.1,0.1-0.2,0.3-0.4,0.3c-0.1,0.1-0.3,0.1-0.4,0.3c0,0.1,0.1,0.3,0.1,0.5
			c0,0.2,0,0.3-0.1,0.5c-0.1,0.2-0.2,0.3-0.3,0.5c-0.1,0.1-0.2,0.4-0.3,0.5c-0.1-0.1-0.2-0.2-0.4-0.2c-0.3,0-0.4,0.1-0.5-0.2
			c-0.1-0.2,0-0.3-0.3-0.3c-0.2,0-0.3,0-0.5,0c-0.4,0.1-0.5-0.3-0.7-0.5c-0.2-0.1-0.6-0.2-0.8-0.4c-0.1-0.1-0.1-0.2-0.2-0.4
			c-0.1-0.1-0.3-0.2-0.4-0.2c-0.1,0-0.3-0.1-0.5-0.1c-0.2,0-0.3,0-0.5,0c-0.1-0.2-0.6-0.6-0.6-0.6c-0.2-0.2,0.1-0.6-0.1-0.7
			c0.1-0.1,0.2-0.2,0.3-0.4c0-0.1,0-0.2,0-0.3c0.1-0.2,0.3-0.3,0.4-0.5c0.1-0.2,0-0.4,0.1-0.6c0.1-0.3,0.4-0.6,0.6-0.9
			c0.2-0.2,0.2-0.5,0.2-0.8c0-0.1,0-0.1,0-0.2c0,0-0.2-0.1-0.2-0.2c0-0.1,0.2-0.3,0.3-0.4c0.1-0.2,0.2-0.3,0.2-0.5
			c0-0.2-0.1-0.5,0-0.7c0.1-0.3,0.4-0.5,0.4-0.7c0.1-0.3,0.3-0.7,0.3-0.9c0-0.1-0.1-0.1-0.1-0.2c0-0.1,0.1-0.2,0.1-0.2
			c0.1-0.2,0.3-0.4,0.3-0.6c0-0.2,0.1-0.3,0.1-0.5c0-0.1,0-0.4,0.1-0.5c0.1-0.1,0.2-0.2,0.3-0.3c0.1-0.1,0.1-0.2,0.2-0.3
			c0.1-0.2,0.2-0.4,0.2-0.5c0-0.2,0-0.3,0.1-0.5c0.1-0.2,0.2-0.1,0.4-0.2c0.1,0,0.3-0.2,0.4-0.2c0.2,0,0.3,0.2,0.3,0.4
			c0.1,0.3,0.4,0.6,0.4,1c0,0.4-0.1,0.7,0.1,1c0.1,0.1,0.2,0.2,0.3,0.3c0.1,0.1,0.1,0.3,0.1,0.5c0,0.2,0,0.5,0,0.7
			c0,0.2,0.1,0.3,0.2,0.5c0.1,0.4,0,0.7,0,1.1c0,0.2,0.1,0.3,0.1,0.5c0,0.2,0.1,0.3,0.2,0.5c0.1,0.2,0,0.4,0.1,0.7
			c0.1,0.2,0.2,0.4,0.3,0.6c0.1,0.2,0.1,0.4,0.2,0.6c0.1,0.2,0.3,0.5,0.5,0.6c0.1-0.3-0.2-0.6-0.1-0.9c0-0.2,0.1-0.4,0.1-0.6
			c0-0.2-0.1-0.3-0.1-0.5c0-0.4,0.1-0.7,0.1-1c0-0.2,0-0.3-0.1-0.4c-0.1-0.2-0.3-0.2-0.1-0.5c0.1-0.1,0.2-0.3,0.2-0.5
			c0.1-0.2,0-0.4,0-0.6c0-0.1,0-0.2,0-0.3c0-0.1,0-0.2,0-0.2c0-0.2,0-0.4-0.1-0.5c-0.1-0.2-0.4-0.5-0.3-0.8c0-0.2,0.3-0.2,0.3-0.4
			c0-0.2-0.1-0.4-0.1-0.5c-0.1-0.2-0.1-0.5-0.2-0.7c-0.1-0.2-0.3-0.5-0.3-0.7c0.1-0.1,0.4,0,0.6-0.1c0.2,0,0.3-0.2,0.5-0.2
			c0.2-0.1,0.7-0.1,0.7-0.4c-0.1,0-0.3,0-0.4,0.1c0-0.2-0.4-0.2-0.5-0.1c-0.2,0.1-0.3,0.3-0.6,0.3c-0.2-0.2,0.1-0.6,0.3-0.7
			c0.2-0.2,0.6-0.2,0.9-0.1c0.3,0,0.6,0.2,1,0.3c0.2,0.1,0.3,0.1,0.4,0.3c0.1,0.2,0.2,0.2,0.4,0.4c0.1,0.1,0.2,0.3,0.2,0.4
			c0.1,0.2,0.1,0.3,0.2,0.5c0,0.2,0,0.3,0.1,0.5c0.1,0.2,0.1,0.3,0.1,0.5c0.1,0.3,0.3,0.6,0.4,0.9c0.1,0.2,0,0.4,0.1,0.6
			c0.1,0.3,0.3,0.3,0.5,0.4c0.2,0.1,0.2,0.2,0.2,0.4c0,0.2,0.1,0.3,0.2,0.5c0,0.2,0,0.3,0.1,0.5c0.1,0.2,0.3,0.3,0.4,0.5
			c0.2,0.2,0.1,0.1,0,0.3c-0.1,0.2,0,0.3,0.1,0.5c0.2,0.3,0.5,0.6,0.6,1c0.1,0.2,0.1,0.4,0.3,0.6c0.1,0.1,0.2,0.1,0.3,0.1
			c0.1,0.1,0.1,0.1,0.2,0.2c0-0.4-0.1-0.7-0.2-1c-0.1-0.4-0.3-0.8-0.3-1.2c0-0.2,0.1-0.4,0-0.6c0-0.2-0.1-0.4-0.2-0.6
			c-0.1-0.1-0.1-0.3-0.2-0.4c-0.1-0.2-0.2-0.3-0.3-0.5c-0.1-0.2-0.1-0.4-0.1-0.6c-0.1-0.2-0.1-0.4-0.1-0.6c0-0.4,0.1-0.8-0.1-1.2
			c0-0.1-0.1-0.2-0.1-0.3c-0.1-0.1-0.2-0.1-0.3-0.2c-0.2-0.1-0.1-0.4-0.2-0.5c-0.1-0.3-0.3-0.7-0.4-1.1c0-0.2,0-0.4,0-0.6
			c0-0.1-0.1-0.2-0.2-0.3c0.2-0.1,0.4-0.2,0.6-0.3c0.1,0,0.1,0,0.2,0c0.1,0.1,0,0.2,0.2,0.1c0.1,0,0.1-0.1,0.2-0.2
			c0.1-0.1,0.2-0.1,0.3-0.1c0.2-0.1,0.2-0.3,0.4-0.4c0.2,0.2,0.3,0.5,0.5,0.7c0.2,0.2,0.5,0.5,0.6,0.7c0,0.2,0,0.3,0.1,0.5
			c0.1,0.2,0.4,0.2,0.5,0.4c0.1,0.1,0.3,0.4,0.3,0.5c0.1,0.2,0,0.3,0.2,0.5c0.2,0.2,0.2,0.3,0.6,0.3c0,0.3,0.2,0.6,0.3,0.9
			c0.1,0.3,0.3,0.5,0.5,0.7c0.2,0.2,0.3,0.4,0.5,0.7c0,0.1,0.1,0.2,0.2,0.3c0.1,0.1,0.1,0.1,0.3,0.2c0.1-0.2,0.1-0.3,0-0.5
			c-0.1-0.2-0.1-0.2,0-0.5c0.1-0.4,0-0.7-0.2-1.1c-0.2-0.3-0.4-0.5-0.5-0.8c-0.1-0.2-0.1-0.3,0-0.5c0-0.3-0.1-0.3-0.3-0.4
			c-0.2-0.2-0.5-0.5-0.7-0.7c-0.2-0.3-0.4-0.5-0.5-0.9c-0.1-0.3-0.2-0.6-0.4-0.8c-0.2-0.2-0.4-0.4-0.4-0.7c0.1,0,0.2,0,0.3-0.1
			c0.1,0,0.2-0.2,0.3-0.3c0.2-0.1,0.4-0.3,0.6-0.4c0.4-0.2,0.8-0.1,1.2-0.3c0,0,0,0.1,0,0.1c0.2,0.1,0.3,0.2,0.5,0.3
			c0.2,0.1,0.3,0.3,0.5,0.3c0.1,0,0.3-0.1,0.5-0.2c0.2,0,0.3-0.1,0.5-0.1c0.1,0.2-0.3,0.8-0.5,1c0.1,0.1,0.3,0.1,0.4,0.2
			c0.2,0.1,0.4,0.2,0.6,0.3c0.2,0.1,0.3,0.1,0.5,0.2c0.1,0.1,0.2,0.2,0.3,0.3c0.3,0.3,0.8,0.4,1.1,0.6c0.2,0.1,0.5,0.1,0.5,0.3
			c0.1,0.2,0,0.4,0.1,0.6c0.2,0.4,0.7,0.3,1.1,0.5c0.2,0.1,0.3,0.3,0.5,0.4c0.2,0.2,0.2,0.2,0.3,0.4c0.2,0.3,0.6,0.5,0.9,0.7
			c0.1,0,0.4,0.2,0.4,0.1c0-0.1-0.3-0.3-0.3-0.4c-0.1-0.2-0.3-0.3-0.4-0.4c-0.3-0.2-0.1-0.4-0.2-0.7c-0.1-0.3-0.4-0.8-0.7-1
			c-0.1-0.1-0.3-0.2-0.4-0.3c-0.2-0.2-0.4-0.2-0.6-0.3c-0.2-0.1-0.2-0.3-0.3-0.5c-0.2-0.2-0.6-0.2-0.8-0.4c-0.1-0.1-0.2-0.2-0.3-0.3
			c-0.1-0.1-0.2-0.1-0.3-0.2c-0.2-0.2-0.4-0.5-0.7-0.6c-0.2-0.2-0.4-0.5-0.4-0.7c-0.1-0.3-0.3-0.6-0.5-0.8c0.3,0,0.5-0.3,0.7-0.4
			c0,0,0,0.1,0,0.1c0-0.1,0.3-0.1,0.4-0.2c0,0,0-0.1,0-0.2c0-0.1,0.1-0.2,0.2-0.2c0.1-0.1,0.3,0,0.5,0.1c0.3,0.1,0.7,0.3,1.1,0.4
			c0.2,0.1,0.3,0.1,0.4,0.2c0.1,0.1,0.1,0.2,0.3,0.3c0.2,0.1,0.4,0,0.5,0.1c0.1,0.1,0.3,0.1,0.4,0.2c0.3,0.2,0.5,0.3,0.9,0.3
			c0.2,0,0.3,0,0.4,0.1c0.2,0.1,0.3,0.2,0.5,0.3c0.4,0.1,0.6,0.4,0.9,0.6c0.3,0.1,0.7,0.2,1.1,0.4c0.4,0.1,0.8,0.2,1.1,0.3
			c0.3,0.1,0.8,0.3,1.1,0.4c-0.3-0.5-0.9-1.2-1.6-1.1c-0.3,0-0.4,0-0.6-0.3c-0.1-0.1-0.2-0.3-0.4-0.4c-0.1-0.1-0.3-0.1-0.4-0.2
			c-0.2-0.1-0.3-0.3-0.5-0.4c-0.1-0.1-0.3-0.2-0.4-0.3c-0.2-0.1-0.4-0.1-0.6-0.2c-0.2-0.1-0.3-0.2-0.5-0.4c-0.1-0.2-0.2-0.2-0.5-0.3
			c-0.3-0.1-0.8-0.2-1-0.5c-0.2-0.2-0.5-0.4-0.7-0.6c0,0-0.1-0.1-0.1-0.1c0.2-0.1,0.2-0.2,0.4-0.3c0.1,0,0.2,0,0.3-0.1
			c0.1,0,0.1-0.1,0.2-0.2c0.3-0.2,0.6-0.3,1-0.4c0.2,0,0.3-0.1,0.5-0.1c0.2,0,0.4,0,0.6,0c0.4,0,0.8-0.1,1.1,0
			c0.4,0.1,0.9,0.1,1.3,0.1c0,0.2,0.2,0.3,0.3,0.3c0.1,0,0.2,0,0.3,0c0.1,0,0.3,0.1,0.5,0.1c0,0.2-0.1,0.3,0.2,0.5
			c0.1-0.1,0.3-0.2,0.5-0.2c0.2,0,0.3,0.1,0.5,0.1c0.1,0,0.3-0.1,0.5-0.1c0.1,0,0.3-0.1,0.4-0.2c0.1-0.3-0.5-0.8-0.8-0.9
			c-0.4-0.2-0.8-0.4-1.3-0.4c-0.3,0-0.5,0-0.8-0.2c-0.1-0.1-0.3-0.3-0.4-0.3c-0.3-0.2-0.8-0.2-1.1-0.2c-0.1,0-0.2,0-0.2,0
			c0.2-0.2,0.4-0.1,0.6-0.2c0.2-0.1,0.4-0.2,0.5-0.3c0.2-0.1,0.2-0.2,0.3-0.4c0.3-0.3,0.7-0.2,1-0.5c0.2-0.1,0.2-0.3,0.4-0.3
			c0.2,0,0.4,0.1,0.5,0.2c0.4,0.2,0.8,0.2,1.1,0.3c0.4,0.1,0.7,0.1,1.1,0c0.4-0.1,0.8-0.1,1.1,0c0.5,0.1,1.1,0.1,1.6,0.1
			c0.2,0,0.4,0.1,0.6,0c0.2,0,0.3-0.1,0-0.2c-0.4-0.2-0.8-0.1-1.1-0.3c-0.2-0.1-0.4-0.2-0.6-0.3c-0.2,0-0.2,0-0.4,0
			c-0.1,0-0.1,0.1-0.2,0.1c-0.4,0-0.8-0.3-1.1-0.5c-0.2-0.1-0.2-0.2-0.5-0.2c-0.2,0-0.5-0.1-0.7-0.1c-0.1,0-0.2,0-0.2-0.1
			c0.1-0.3,0.6-0.4,0.9-0.5c0.3-0.1,0.5-0.2,0.7-0.5c0.5-0.7,1.3-0.6,2.1-0.8c0.1,0,0.2-0.1,0.4-0.1c0,0,0,0,0,0
			c0.4-0.2,0.7-0.4,1,0.1c0.1-0.1,0-0.2,0.1-0.3c0.1-0.1,0.3-0.1,0.4-0.1c0.3,0,0.7,0.1,1,0c0.3-0.1,0.5-0.3,0.7-0.3
			c0.3-0.1,0.6-0.2,0.9-0.2c-0.3-0.2-0.8-0.2-1.2-0.3c-0.4,0-0.7-0.1-1.1-0.2c-0.4-0.1-0.8-0.1-1.2,0c-0.4,0.1-0.7,0.3-1.1,0.2
			c0,0-0.1,0-0.1,0c0.4-0.4,0.9-0.8,1.3-1.2c0.3-0.4,0.5-0.7,0.9-1c0.1-0.1,0.2-0.2,0.3-0.4c0-0.1,0-0.2,0.1-0.3
			c0.1-0.1,0.3-0.1,0.4-0.3c0.2-0.3,0.3-0.6,0.5-0.9c0.1-0.1,0.1-0.3,0.2-0.4c0.1-0.1,0.2-0.2,0.3-0.4c0-0.1,0.1-0.2,0.1-0.3
			c0-0.1-0.1-0.3,0-0.4c0-0.1,0.2-0.2,0.3-0.3c0.1-0.1,0.1-0.2,0.1-0.3c0.1-0.1,0.3-0.2,0.4-0.4c0.2-0.3-0.1-0.7,0-0.9
			c0.1-0.2,0.3-0.2,0.4-0.4c0-0.2,0-0.4,0-0.6C123.7,29.6,124,29.3,123.9,29.1z M86.5,43.2c0.4-0.5,1.4-0.1,1,0.6
			c-0.2,0.3-0.4,0.2-0.7,0.1C86.5,43.7,86.3,43.5,86.5,43.2z M84.7,45.6c0.1-0.2,0.2-0.4,0.2-0.6c0.1-0.2,0.1-0.5,0.1-0.7
			c0.3,0.1,0.4-0.1,0.6-0.2c0.2-0.1,0.5,0.1,0.7-0.1c0,0.2,0,0.3-0.1,0.5c0,0.1-0.1,0.2-0.1,0.2c0,0.2,0.1,0.1,0.2,0.2
			c0.1,0.2,0,0.4,0,0.6c0,0.2-0.1,0.4-0.1,0.6c-0.1,0.4-0.1,0.9-0.4,1.1c-0.1,0.1-0.3,0.1-0.3,0.2c0,0.2,0.1,0.1,0.1,0.2
			c0.1,0.2,0,0.2,0,0.5c0,0.3-0.1,0.3-0.2,0.6c-0.2,0.3-0.1,0.6,0,0.9c0.1,0.5-0.1,0.9-0.3,1.3c-0.1,0.2-0.2,0.4-0.2,0.6
			c0,0.2,0.1,0.6,0,0.7c-0.3,0.2-1.1-0.2-1.4-0.1c0-0.1,0.2-0.2,0.2-0.4c0.1-0.2,0.1-0.2,0.1-0.4c0-0.4,0-0.8,0.1-1.2
			c0-0.5,0.1-1.1,0.3-1.6c0.2-0.6,0.3-1.1,0.4-1.7C84.5,46.5,84.5,46.1,84.7,45.6z M82.7,46.5c0.2-0.1,0.4-0.1,0.6-0.2
			c0.3-0.1,0.7,0.1,0.8,0.4c0.2,0.3,0.1,0.6,0,0.9C84,47.9,84,48,83.8,48.1c-0.1,0.1-0.3,0.1-0.5,0.1c-0.2,0-0.6-0.2-0.8-0.3
			c-0.1-0.1-0.2-0.4-0.2-0.6C82.3,46.9,82.5,46.8,82.7,46.5z M79.2,51.6c0.2-0.3,0.2-0.5,0.3-0.8c0.1-0.1,0-0.2,0.1-0.4
			c0.1-0.2,0.1-0.1,0.2-0.3c0.2-0.3,0.1-0.4,0.1-0.7c0-0.3,0.2-0.5,0.3-0.7c0.1-0.2-0.1-0.6,0-0.7c0,0,0.2-0.1,0.3-0.1
			c0.2-0.2,0.3-0.5,0-0.6c0.1-0.2,0.3-0.3,0.5-0.5c0.1-0.2-0.1-0.4,0.1-0.5c0.1-0.3,0.1-0.8,0.3-1.1c0.2-0.2,0.8-0.3,1-0.3
			c-0.1,0.3-0.1,0.5-0.1,0.8c-0.1,0.5-0.4,1-0.5,1.4c-0.1,0.4-0.1,0.9-0.3,1.3c-0.1,0.2-0.2,0.4-0.3,0.7c-0.1,0.3,0,0.5,0,0.7
			c0,0.1,0,0.2,0,0.3c0,0.1,0,0.2,0,0.3c0,0.3-0.3,0.4-0.4,0.6c0.1,0.2,0,0.6,0,0.8c-0.1,0.2,0,0.5-0.2,0.6c-0.3-0.1-0.6,0-0.9,0
			c-0.2,0-0.2-0.1-0.4-0.1c-0.2,0-0.3,0.1-0.4,0C78.8,52.1,79.1,51.8,79.2,51.6z M84.2,70c0.1,0.2-0.1,0.4,0.1,0.6
			c0.2,0.3,0.8,0.4,0.7,0.9c-0.3-0.2-0.6,0-1,0c-0.5-0.1-0.6-0.2-1,0c-0.5,0.3-0.4,0.1-0.8-0.1c-0.3-0.1-0.5,0.2-0.8,0.2
			c-0.1-0.3,0.5-0.7,0.7-0.9c0.2-0.2,0.3-0.2,0.2-0.5C82.2,70,82,70,82.2,69.8c0.1-0.2,0.3-0.1,0.4-0.4c0.1-0.2-0.1-0.3,0-0.5
			c0-0.3,0.4-0.7,0.4-1.1c0.2,0.1,0.2,0.2,0.3,0.3c0.1,0.2,0.1,0.3,0.2,0.5c0.2,0.3,0.1,0.7,0.3,1.1C83.9,69.9,84,69.8,84.2,70z
			 M86.7,54.6c-0.1,0.3-0.2,0.3-0.5,0.5c-0.2,0.1-0.4,0.3-0.4,0.5c0,0.1,0.1,0.1,0.2,0.3c0,0.1-0.1,0.2-0.1,0.3
			c-0.1,0.1-0.2,0.2-0.2,0.3c0,0.1,0,0.3,0,0.4c-0.1,0.3-0.3,0.5-0.4,0.8c-0.1,0.2,0.2,0.5,0.1,0.7c0,0.1-0.2,0.1-0.3,0.1
			c-0.1,0.1-0.1,0.2-0.1,0.4c0,0.1,0,0.2-0.1,0.2c0.3,0,0.7,0.2,0.6,0.6c0,0.3-0.5,0.6-0.6,0.9c0-0.2-0.2-0.4-0.4-0.5
			c-0.2,0.2,0,0.5,0,0.8c0,0.2-0.2,0.3-0.3,0.5c-0.1,0.1-0.1,0.2-0.1,0.3c-0.2,0.5-0.4,1-0.8,1.4c0.1,0.2-0.1,0.3-0.1,0.4
			c0,0.1,0,0.4,0,0.6c0,0.4,0,0.6-0.3,0.9c-0.3-0.3-0.4-0.6-0.6-0.9c-0.1-0.2-0.2-0.4-0.4-0.5c-0.2-0.2-0.3-0.4-0.4-0.7
			c-0.2-0.4-0.1-0.7-0.4-1c-0.1-0.1-0.3-0.3-0.4-0.5c-0.1-0.3,0-0.7,0-1c-0.3-0.1-0.7-0.8-0.8-1.1c-0.1-0.3-0.2-0.8-0.4-0.9
			c-0.3-0.1-0.4,0.1-0.6-0.3c-0.3-0.5,0.2-1-0.1-1.5c0-0.1-0.1-0.2-0.2-0.3c-0.1-0.1-0.2,0-0.3-0.1C78,56,78,55.7,78,55.5
			c0-0.2,0-0.2-0.2-0.4c-0.1-0.1-0.2-0.2-0.3-0.3c-0.2-0.4-0.3-0.7-0.3-0.9c0,0,0-0.1,0-0.1c0.1,0,0.2,0,0.3,0
			c0.2,0,0.2-0.1,0.3-0.1c0.3-0.1,0.5,0,0.8,0c0.3,0.1,0.5,0.1,0.8,0c0.2-0.1,0.4-0.5,0.7-0.3c0.2,0.1,0.2,0.3,0.5,0.4
			c0.2,0,0.4,0,0.6,0c0.3,0,0.2,0,0.5,0c0.5,0.1,1,0.2,1.5,0.1c0.3-0.1,0.5,0,0.8,0.1c0.2,0,0.3-0.1,0.4-0.1c0.2,0,0.3,0,0.5,0
			c0.3,0,0.5-0.2,0.9-0.2c0.3,0,0.7,0.1,1.1,0.2C86.9,54.1,86.7,54.4,86.7,54.6z"/>
	</g>
	<path class="st20" d="M40,33.4c-0.1-0.1,0-0.2,0-0.3c0-0.1-0.1-0.1-0.1-0.2c-0.2-0.2-0.4-0.7-0.4-1c0-0.2-0.1-0.6-0.4-0.8
		c-0.1-0.1-0.2,0.3-0.2,0.4c0,0.2,0,0.4,0,0.5c0,0.1,0.2,0.2,0.2,0.4c0,0.2,0.1,0.3,0.1,0.5c0.1,0.1,0.1,0.3,0.1,0.4
		c0,0.1,0.1,0.3,0.2,0.4c0.1,0.1,0.2,0.3,0.2,0.4c0,0.1,0,0.4,0.2,0.4c0.1,0,0.2-0.3,0.2-0.4c0.1-0.1,0.2-0.3,0.1-0.5
		C40.4,33.6,40.1,33.5,40,33.4z"/>
	<path class="st20" d="M118.4,46.5c-0.1-0.1-0.3-0.2-0.3-0.3c0-0.1-0.1-0.1-0.2-0.2c-0.1,0-0.1-0.1-0.2-0.1c-0.1,0-0.2,0-0.3,0
		c-0.1,0-0.1,0-0.2-0.1c-0.2-0.1-0.6-0.1-0.7,0.2c-0.1,0.2,0.3,0.1,0.2,0.2c0,0-0.1,0-0.2,0.1c0,0,0,0.1,0,0.1c0,0.1,0,0.1,0.1,0.1
		h0c0.1,0,0.1,0,0.1,0c0.1,0,0.1,0,0.2,0c0.2,0.1,0.4,0.1,0.5,0.2c0.1,0,0.1,0,0.2,0c0.1,0,0.1-0.1,0.2-0.1c0.2,0,0.3,0.1,0.5,0.1
		c0.1,0,0.1-0.1,0.1-0.2C118.5,46.6,118.4,46.5,118.4,46.5z"/>
</g>
</svg>
