<?xml version="1.0" encoding="UTF-8"?>
<svg id="Layer_1" xmlns="http://www.w3.org/2000/svg" version="1.1" viewBox="0 0 165 80">
  <!-- Generator: Adobe Illustrator 29.7.1, SVG Export Plug-In . SVG Version: 2.1.1 Build 8)  -->
  <g id="Layer_11" data-name="Layer_1">
    <path d="M59.817,28.926c0-12.049,9.769-21.818,21.818-21.818,8.73,0,16.257,5.128,19.746,12.535-.854.206-1.666.69-2.121,1.158l.257.425c.725-.229,1.5-.397,2.426-.275.971,2.471,1.51,5.161,1.51,7.976,0,.283-.01.561-.022.84-.415.117-.992.239-1.56.239h0c-.241,0-.492-.016-.745-.047-1.022-.127-1.91-.755-2.619-1.396-.012-.822-.065-4.58-.085-4.628l-4.256-6.622.809-.107.01-.105-1.987-2.186.022-.063,1.03-.403v-.063l-1.88-.797.022-.075.467-.455-.032-.065-2.198-.382-.136.032-.777.435-.138.022-2.76-.255-.065.085c.012.051.097.35.107.425.01.075.042.318.042.35l-.053.065-1.496.17-.063.075-1.093,1.953-.085.075c-.042.022-10.283,3.034-10.364,3.052-.079.016-.176.079-.287.158-.113.079-8.868,6.927-8.9,6.968l-.075.148-1.402,4.341.757.37.82-1.494.206.69.022.17c-.008.038-1.491,6.075-2.208,8.939-1.698-3.106-2.665-6.668-2.665-10.455M105.426,20.959c2.224,1.481,2.953,3.59,2.918,5.395-.04,2.006-.816,3.827-2.501,5.146-2.315,1.813-5.25,1.467-7.081.692-1.868-.791-3.805-2.663-4.899-4.398-.132-1.115,1.344-2.396,1.967-1.633.593.727,1.55,1.941,1.941,2.327.971.953,2.034,1.757,3.293,1.914,5.294.656,6.901-5.207,3.993-8.257-1.534-1.609-3.473-1.89-5.142-1.384,1.672-1.376,4.157-.698,5.507.202M92.261,19.771l.051-.117.435-.047.427.251.055.13-.077.089-.322.235s-.569-.542-.569-.542ZM88.016,21.096l-.172.269-.899-.876.006-2.433.119-.125,1.811.385.103.18.103.358-1.672-.492-.04,1.977.642.761v-.004ZM81.629,50.754c-7.002,0-13.229-3.303-17.222-8.433h2.463l-.267-1.993,3.303-6.529s2.722.372,2.789.397l-.079.304-2.457-.144-1.576,3.046-.518,4.926h5.632l-1.008-2.291,1.269-4.568,1.532.006.469.688,1.064-.591.37.676,1.35-.557-.947,6.632h4.808l-.34-1.945,1.398-3.183-2.728-2.596.148-1.657.322-.134.032,1.496,2.781,2.643-.18,5.375h6.316l-1.125-1.746c-.01-.043-1.22-6.834-1.21-6.962.01-.128,1.317-5.276,1.358-5.339l1.285-.637c.053.02,1.997,2.281,2.072,2.293.073.01.71-.605.765-.617l.975.977-3.291,4.3,1.921,3.386.35-1.156,1.55.34-1.759-2.441,3.997-2.813.024-.032c.433.283.878.532,1.33.724,1.01.427,2.173.664,3.274.664.308,0,.848-.051,1.17-.089-1.973,10.022-10.803,17.584-21.403,17.584M81.635,53.646c12.679,0,23.125-9.548,24.544-21.846,1.706-1.362,2.607-3.242,2.607-5.44,0-1.589-.54-4.047-3.113-5.76-.299-.2-.627-.376-.967-.522-3.562-9.283-12.547-15.864-23.071-15.864-13.646,0-24.708,11.064-24.708,24.71s11.064,24.71,24.708,24.71"/>
    <g>
      <path d="M114.027,69.842c0,.818.172,2.218-1.109,2.218-1.214,0-1.115-1.4-1.115-2.218v-6.17h-4.705v7.152c0,3.198,2.068,4.962,5.82,4.962s5.816-1.763,5.816-4.962v-7.152h-4.707v6.17h0Z"/>
      <polygon points="122.377 63.672 122.377 67.695 125.022 67.695 125.022 75.31 129.729 75.31 129.729 67.695 132.374 67.695 132.374 63.672 122.377 63.672"/>
      <path d="M59.649,71.056h-2.228l1.133-3.748,1.095,3.748h0ZM55.697,63.674l-3.948,11.636h4.375l.445-1.413h3.92l.421,1.413h4.588l-4.049-11.636h-5.754.002Z"/>
      <polygon points="47.571 63.672 42.791 63.672 41.12 69.524 39.452 63.672 34.67 63.672 32.626 75.31 36.979 75.31 37.819 69.688 39.689 75.31 42.554 75.31 44.422 69.688 45.262 75.31 49.615 75.31 47.571 63.672"/>
      <path d="M102.127,63.672h-4.782l-1.668,5.849-1.668-5.849h-4.782l-2.044,11.636h4.353s.816-5.306.84-5.62c.055.344,1.87,5.62,1.87,5.62h2.864l1.87-5.62.84,5.62h4.353l-2.044-11.636h-.002Z"/>
      <path d="M82.58,63.672h-4.782l-1.668,5.849-1.668-5.849h-4.782l-2.044,11.636h4.353s.816-5.306.84-5.62c.055.344,1.87,5.62,1.87,5.62h2.864l1.87-5.62.84,5.62h4.353l-2.044-11.636h-.002Z"/>
    </g>
  </g>
</svg>