<?xml version="1.0" encoding="UTF-8"?>
<svg id="Layer_1" xmlns="http://www.w3.org/2000/svg" version="1.1" viewBox="0 0 165 80">
  <!-- Generator: Adobe Illustrator 29.0.0, SVG Export Plug-In . SVG Version: 2.1.0 Build 186)  -->
  <defs>
    <style>
      .st0 {
        fill: #12110b;
      }
    </style>
  </defs>
  <path class="st0" d="M31,28.7c1.1-1.1,2.1-1.6,2.9-1.5,1,.1,1.1.6,1.4,1.7.1.4.2.8.4,1.2,3.6,10.1,14.1,7.7,14.2,7.6,0,0,.5-.1,1.2-.4.1,0,.2-.2.2-.3s-.1-.2-.3-.2c-2-.1-4.5-1-8.3-6.9l-.3-.4c-1.5-2.3-2.6-4.1-6.5-3.8-1.7.1-2.9.7-4,1.2-.7.3-1.3.6-2,.8-1.8.4-2.9.4-3.9.3-.2,0-.4,0-.6,0-3.9-.2-6.1-2.1-7-6.2,0-.1-.2-.2-.3-.2-.2,0-.3.1-.3.2-.2.4-.6,1.5-.7,2.5-.4,4.7,1.2,7.6,4.7,8,1.3.3,5.2.3,9.3-3.6ZM148,24.2c0-.9-.3-1.7-1-2.3s-1.4-.9-2.2-.9-1.7.3-2.3,1-1,1.4-1,2.3.3,1.6,1,2.2,1.4,1,2.2,1,1.6-.3,2.2-.9c.7-.7,1-1.4,1-2.4ZM144.8,27c-.8,0-1.4-.3-1.9-.8s-.8-1.2-.8-2,.3-1.5.8-2,1.2-.8,1.9-.8,1.3.3,1.9.8c.5.6.8,1.2.8,2s-.3,1.5-.8,2c-.5.6-1.2.8-1.9.8ZM119,24.8c.3.4.4,1.2.4,2.2v28.4c0,.8,1,1.6,2.9,2.4,1.9.8,3.9,1.2,5.8,1.2,3.9,0,7.1-1.3,9.6-4,2.4-2.7,3.6-6,3.6-9.7s-1-6.4-2.8-8.7c-1.9-2.2-4.1-3.3-6.7-3.3s-4,.7-5.7,2c-1,.8-1.6,1.6-2.1,2.4v-16.3c0-.1,0-.2,0-.3-.1,0-1,.3-2.6.8s-3.5,1.1-5.5,1.6v.9h1.2c1-.1,1.7.1,2,.5ZM123.9,40.8c0-1.2.6-2.2,1.8-3,1.2-.8,2.5-1.2,3.7-1.2,2.5,0,4.3,1.1,5.5,3.4,1.1,2.2,1.7,4.7,1.7,7.4s-.6,4.9-1.8,6.8c-1.2,1.9-3,2.8-5.6,2.8s-2-.2-3.3-.6-1.9-1.1-2.1-2v-13.6h0ZM113.1,55.7c-.7,0-1.2-.3-1.5-1.1-.2-.4-.2-1.1-.2-2.1v-10.7c0-2.4-.3-4.2-1-5.4-1.2-2.2-3.6-3.4-7.1-3.4s-5.3.7-6.8,2.1c-1.6,1.3-2.3,2.7-2.3,3.9s.2,1.2.6,1.7c.4.5,1.1.8,1.9.8s1-.1,1.3-.3c.7-.4,1-1.1,1-2.1s0-.4-.1-1c-.1-.5-.1-.9-.1-1.1,0-.8.4-1.5,1.2-2s1.7-.7,2.6-.7c1.9,0,3.1.6,3.8,1.8.3.7.6,2,.6,3.8v2.3c-4.9,1.9-8.2,3.3-9.8,4.4-2.6,1.7-3.9,3.9-3.9,6.5s.6,3,1.7,4.1c1.1,1.1,2.5,1.6,4,1.6s3-.5,4.7-1.5c1-.6,2.1-1.5,3.5-2.6,0,1.1.3,2,.9,2.8s1.4,1.2,2.6,1.2,2.1-.3,3-1c.7-.4,1.3-1,1.9-1.7v-1.4c-.7.5-1.1.8-1.4.9-.3,0-.6,0-1,0ZM107,52.1c0,1-.6,1.9-1.6,2.5s-2.2,1-3.4,1-1.6-.2-2.4-.7c-1.1-.8-1.6-2-1.6-3.6s1.3-3.8,3.9-5.4c1.3-.8,3-1.6,5.1-2.2v8.4h0ZM145.3,24.3c.5-.2.7-.5.7-1s-.1-.5-.3-.6c-.2-.2-.5-.2-.8-.2h-1.7v.2c.2,0,.3,0,.4.1s0,.2,0,.3v2.3c0,.2,0,.3,0,.3s-.2,0-.4.1v.2h1.5v-.2c-.2,0-.3,0-.4-.1s0-.2,0-.3v-1h.5c.2.3.4.7.7,1.1.2.3.3.4.4.4h.6v-.2c-.3-.3-.5-.5-.6-.7l-.6-.8ZM144.7,24.2h-.4v-1.6h.4c.5,0,.7.2.7.7s-.2.8-.7.8ZM70.4,57.5c-2.1-.2-3.4-.6-4-1.1-.6-.6-.9-1.9-.9-3.9v-10.9h3c0-.1,13.1,16.8,13.1,16.8h8.9v-1c-1.1-.1-2-.3-2.7-.7-.7-.4-1.4-1-2.1-1.9l-11.3-13.9c3-.4,5.5-1.4,7.3-2.9,1.8-1.5,2.6-3.6,2.6-6.3,0-4.1-2-6.9-6-8.4-2.1-.8-4.8-1.2-7.9-1.2h-15.2v1c2,.2,3.3.6,3.9,1.1.6.6.9,1.9.9,3.8v23.8c0,2.3-.3,3.8-.8,4.4s-1.9,1-3.9,1.2v.9h15.3v-1h0ZM65.5,26.1c0-.8.2-1.3.5-1.6.3-.2,1.3-.3,2.9-.3,2.3,0,4.2.3,5.6,1,2.6,1.2,3.9,3.3,3.9,6.5s-1.5,5.6-4.4,6.7c-1.7.7-4.6,1.1-8.5,1.2,0,0,0-13.5,0-13.5ZM54.6,50.8c-2-.1-4.5-1-8.3-6.9l-.3-.4c-1.5-2.3-2.6-4.1-6.5-3.8-1.7.1-2.9.7-4,1.2-.7.3-1.3.6-2,.8-1.8.4-2.9.4-3.9.3-.2,0-.4,0-.6,0-3.9-.2-6.1-2.1-7-6.2,0-.1-.2-.2-.3-.2-.2,0-.3.1-.3.2-.2.4-.6,1.5-.7,2.5-.4,4.7,1.2,7.5,4.7,8,1.5.2,5.3.2,9.4-3.7,1.1-1.1,2.1-1.6,2.9-1.5,1,.1,1.1.6,1.4,1.7.1.4.2.8.4,1.2,3.6,10.1,14.1,7.6,14.2,7.6,0,0,.5-.1,1.2-.4.1,0,.2-.2.2-.3-.2,0-.3,0-.4,0Z"/>
</svg>