<?xml version="1.0" encoding="utf-8"?>
<!-- Generator: Adobe Illustrator 26.3.1, SVG Export Plug-In . SVG Version: 6.00 Build 0)  -->
<svg version="1.1" id="Layer_1" xmlns="http://www.w3.org/2000/svg" xmlns:xlink="http://www.w3.org/1999/xlink" x="0px" y="0px"
	 viewBox="0 0 165 80" style="enable-background:new 0 0 165 80;" xml:space="preserve">
<style type="text/css">
	.st0{fill:#FFFFFF;}
	.st1{fill:#12110B;}
	.st2{fill-rule:evenodd;clip-rule:evenodd;fill:#231F20;}
	.st3{fill-rule:evenodd;clip-rule:evenodd;}
	.st4{fill:#231F20;}
	.st5{fill:#1D1D1B;}
	.st6{clip-path:url(#SVGID_00000022521412351961183100000003165128497573617592_);fill:#1D1D1B;}
	.st7{fill:#2A3075;}
	.st8{fill:none;}
	.st9{fill-rule:evenodd;clip-rule:evenodd;fill:#FFFFFF;}
</style>
<g>
	<path d="M39,32.3h7.3l3.1,15.5h-5.3l-0.5-2.8h-5.9l-1.3,2.8H31L39,32.3z M42.3,35.5L39,42h4.3L42.3,35.5L42.3,35.5z"/>
	<polygon points="53.2,32.3 58.3,32.3 56.5,44 64.1,44 63.6,47.7 50.8,47.7 	"/>
	<polygon points="101.7,32.3 108.4,32.3 109.8,47.7 104.6,47.7 103.8,36.8 103.8,36.8 99.2,47.7 93.1,47.7 91.9,36.6 91.8,36.6 
		88.1,47.7 83,47.7 88.7,32.3 95.3,32.3 96.7,43.9 96.7,43.9 	"/>
	<polygon points="146.2,32.3 150.8,32.3 148.5,47.7 141.3,47.7 136.7,36.6 136.6,36.6 135.1,47.7 130.2,47.7 132.5,32.3 139.5,32.3 
		144.4,43.6 144.5,43.6 	"/>
	<path d="M67.1,46.9c-1.4-0.8-2.1-2.3-1.6-4.6l0.8-4.5c0.4-2.4,1.6-3.8,3.4-4.7c1.7-0.8,4-1,6.5-1c2.6,0,4.7,0.1,6.1,1
		c1.4,0.8,2.1,2.3,1.6,4.7l-0.8,4.5c-0.4,2.4-1.6,3.8-3.3,4.6c-1.7,0.8-4,1-6.5,1C70.7,47.9,68.6,47.7,67.1,46.9 M78,41.9l0.7-3.7
		c0.5-2.4-0.4-2.7-3.2-2.7c-2.6,0-3.7,0.2-4.2,2.7l-0.7,3.7c-0.5,2.5,0.5,2.7,3.2,2.7C76.5,44.6,77.5,44.4,78,41.9"/>
	<path d="M113,46.9c-1.4-0.8-2.1-2.3-1.6-4.6l0.8-4.5c0.4-2.4,1.6-3.8,3.4-4.7c1.7-0.8,4-1,6.5-1c2.6,0,4.7,0.1,6.1,1
		c1.4,0.8,2.1,2.3,1.6,4.7l-0.8,4.5c-0.4,2.4-1.6,3.8-3.3,4.6c-1.7,0.8-4,1-6.5,1C116.5,47.9,114.4,47.7,113,46.9 M123.8,41.9
		l0.7-3.7c0.5-2.4-0.4-2.7-3.2-2.7c-2.6,0-3.7,0.2-4.2,2.7l-0.7,3.7c-0.5,2.5,0.5,2.7,3.2,2.7C122.3,44.6,123.3,44.4,123.8,41.9"/>
	<path d="M29.6,32.1c2.6,0,3.3,1,2.9,3L32,37.6h-4.8l0.3-1.3c0.2-0.9,0-1.1-1.3-1.2c-0.4,0-1.1,0-1.7,0c-0.9,0-1.9,0-2.4,0.1
		c-0.8,0.1-1,0.3-1.1,0.6c-0.1,0.6,0,0.8,1.2,1.4l7.5,3.7c1.5,0.7,1.7,1.2,1.4,2.3l-0.3,1.5c-0.5,2.4-1.2,3.3-4.3,3.3h-8.7
		c-2.9,0-4-1-3.5-3.2l0.4-2.2h4.6L19,44c-0.1,0.4,0.1,0.7,0.7,0.8c0.5,0.1,1.2,0.1,2.5,0.1c0.8,0,1.7,0,2.4-0.1
		c0.8-0.1,1-0.2,1.1-0.7c0.1-0.5,0-0.7-1.6-1.5L18.4,40c-2.2-1.1-2.6-1.9-2.3-3.4l0.3-1.4c0.5-2.4,1.3-3,4.5-3H29.6z"/>
</g>
</svg>
